<svg width="33" height="33" viewBox="0 0 33 33" fill="none" xmlns="http://www.w3.org/2000/svg">
<path d="M24.6295 6.18177C24.4564 6.04558 24.2056 6.07568 24.0696 6.24861C23.9332 6.42186 23.9633 6.67246 24.1364 6.80858C27.1319 9.16454 28.8497 12.6986 28.8497 16.5045C28.8497 16.7247 29.0283 16.9034 29.2485 16.9034C29.4687 16.9034 29.6473 16.7248 29.6473 16.5045C29.6473 12.4522 27.8184 8.6899 24.6295 6.18177Z" fill="#34495E"/>
<path d="M4.19312 16.5045C4.19312 12.6987 5.91092 9.16456 8.90638 6.8086C9.0795 6.67254 9.10941 6.42188 8.97322 6.24863C8.83716 6.07564 8.5865 6.0456 8.41325 6.18179C5.22436 8.68999 3.39551 12.4523 3.39551 16.5045C3.39551 16.7247 3.57411 16.9034 3.79434 16.9034C4.01458 16.9034 4.19312 16.7247 4.19312 16.5045Z" fill="#34495E"/>
<path d="M29.0889 18.5644C28.8728 18.5228 28.6631 18.6631 28.6211 18.8796C27.795 23.1128 24.8331 26.4924 20.9888 27.9916L21.0967 28.8014C25.2773 27.2413 28.5117 23.6058 29.404 19.0322C29.4461 18.8161 29.3052 18.6067 29.0889 18.5644Z" fill="#34495E"/>
<path d="M12.0521 27.9908C8.20796 26.491 5.24666 23.111 4.42121 18.8776C4.37919 18.6614 4.16972 18.5209 3.95354 18.5624C3.73736 18.6046 3.59615 18.8139 3.6383 19.0301C4.52994 23.6038 7.76356 27.2397 11.9441 28.8004L12.0521 27.9908Z" fill="#34495E"/>
<path d="M17.3935 28.7975C17.1048 28.8184 16.8147 28.8326 16.5215 28.8326C16.2278 28.8326 15.9372 28.8182 15.6478 28.7974L15.5386 29.5916C15.8636 29.6165 16.1912 29.6302 16.5215 29.6302C16.8513 29.6302 17.1783 29.6165 17.5029 29.5917L17.3935 28.7975Z" fill="#34495E"/>
<path d="M10.8371 5.08872C11.2334 5.23412 11.4324 5.43302 11.5778 5.82941C11.64 5.9986 11.8763 5.9986 11.9383 5.82941C12.0839 5.43302 12.2828 5.23412 12.679 5.08872C12.8484 5.02652 12.8484 4.7901 12.679 4.72816C12.2828 4.58263 12.0839 4.38373 11.9383 3.98734C11.8763 3.81802 11.64 3.81802 11.5778 3.98734C11.4324 4.38373 11.2334 4.58263 10.8371 4.72816C10.6679 4.7901 10.6679 5.02652 10.8371 5.08872Z" fill="#34495E"/>
<path d="M20.4108 5.08872C20.8072 5.23412 21.0061 5.43302 21.1515 5.82941C21.2137 5.9986 21.4501 5.9986 21.5123 5.82941C21.6576 5.43302 21.8565 5.23412 22.2529 5.08872C22.4222 5.02652 22.4222 4.7901 22.2529 4.72816C21.8565 4.58263 21.6576 4.38373 21.5123 3.98734C21.4501 3.81802 21.2137 3.81802 21.1515 3.98734C21.0061 4.38373 20.8072 4.58263 20.4108 4.72816C20.2416 4.7901 20.2416 5.02652 20.4108 5.08872Z" fill="#34495E"/>
<path d="M15.1998 3.94961C15.2765 4.00523 15.3086 4.10404 15.2793 4.19447L14.8004 5.66858C14.7349 5.87038 14.9658 6.03815 15.1375 5.91343L16.3914 5.00239C16.468 4.94664 16.5721 4.94664 16.6488 5.00239L17.9029 5.91343C18.0745 6.03821 18.3055 5.87038 18.2399 5.66858L17.7609 4.19447C17.7317 4.1041 17.7638 4.00523 17.8406 3.94961L19.0945 2.99016C19.2661 2.86551 19.178 2.54582 18.9657 2.54582H17.4157C17.3207 2.54582 17.2367 2.53293 17.2074 2.4427L16.7284 0.992501C16.6627 0.790827 16.3774 0.802945 16.3119 1.00462L15.8328 2.4367C15.8035 2.52681 15.7195 2.54582 15.6246 2.54582H14.0744C13.8622 2.54582 13.7741 2.86551 13.9457 2.99016L15.1998 3.94961Z" fill="#34495E"/>
<path d="M16.5201 8.21411C15.2001 8.21411 14.1301 9.28403 14.1301 10.604C14.1301 11.924 15.2002 12.9938 16.5201 12.9938C17.84 12.9938 18.9101 11.9239 18.9101 10.604C18.9101 9.28403 17.84 8.21411 16.5201 8.21411ZM17.5469 10.853C17.4656 11.36 17.0335 11.7281 16.5195 11.7281C16.0104 11.7281 15.579 11.3643 15.494 10.8631C15.4831 10.8002 15.5007 10.7356 15.5418 10.6868C15.5828 10.638 15.6432 10.6095 15.7072 10.6093L17.3308 10.6009C17.3966 10.6011 17.4555 10.6283 17.4971 10.6769C17.5387 10.7254 17.5568 10.7897 17.5469 10.853Z" fill="#34495E"/>
<path d="M19.7522 23.1092L19.6793 22.5567L19.6726 22.5618L19.242 19.6355L19.2493 19.6281L19.1735 19.0768L18.9125 17.1608C18.9023 17.087 18.9908 17.0435 19.043 17.0957L20.0452 18.0978C20.2568 18.3095 20.2568 18.6517 20.0452 18.8634L19.9595 18.9492L20.3897 21.8746L22.1813 20.2398C23.1499 19.2697 23.1499 17.6975 22.1813 16.7288L22.1843 16.7244L20.837 15.3846C19.8741 14.423 18.5703 13.8896 17.21 13.8896H15.8309C14.4706 13.8896 13.1654 14.4193 12.204 15.381L10.8568 16.7256H10.8596C9.89089 17.6924 9.89089 19.2679 10.8596 20.2382L12.6526 21.8743L13.0825 18.9501L12.9958 18.8632C12.7841 18.6515 12.7841 18.3094 12.9958 18.0977L13.9978 17.0956C14.05 17.0435 14.1385 17.0868 14.1282 17.1608L13.7915 19.6279L13.7986 19.6351L13.3711 22.5521L13.3629 22.5444L12.127 31.7942C12.1023 31.9798 12.2473 32.1299 12.4344 32.1299H14.3269C14.4821 32.1299 14.6126 32.0319 14.6344 31.8784L15.6597 24.4458C15.6771 24.3196 15.7191 24.2048 15.78 24.1004C16.1035 23.5508 16.9373 23.5529 17.2592 24.1025C17.3201 24.2069 17.3623 24.3267 17.3811 24.4531L18.4062 31.8777C18.4282 32.0315 18.5587 32.1299 18.7137 32.1299H20.6062C20.7932 32.1299 20.9382 31.9798 20.9136 31.7943L19.7522 23.1092ZM17.3445 18.7495L16.5546 19.304L15.7314 18.7495C15.7071 18.7326 15.6785 18.7024 15.6852 18.6734L16.3494 15.8332C16.3543 15.8126 16.3455 15.7908 16.3329 15.7737L15.8717 15.1578C15.8364 15.1099 15.8685 15.0498 15.9281 15.0498H17.1137C17.1733 15.0498 17.2074 15.1099 17.1721 15.1578L16.7131 15.7774C16.7003 15.7946 16.6959 15.8145 16.7009 15.8352L17.3734 18.6744C17.3804 18.7034 17.3688 18.7327 17.3445 18.7495Z" fill="#34495E"/>
</svg>
