<svg width="100" height="100" viewBox="0 0 100 100" fill="none" xmlns="http://www.w3.org/2000/svg">
<rect width="100" height="100" fill="#FFFBF0"/>
<path d="M7.62012 64C10.2129 53.2334 10.2129 47.4766 7.62012 36.71H19.1777C17.332 44.0928 16.8047 49.1025 17.4639 54.9912C17.5518 35.9629 29.7686 31.7441 32.5371 39.5664C33.1084 41.1484 33.1963 42.7305 33.0645 44.4004C36.5361 34.6885 44.3584 33.502 46.5117 39.5664C48.8408 46.0264 42.5127 52.3984 48.7529 64H37.1514C35.3057 57.7598 40.4912 47.1689 39.5684 41.3242C38.6016 34.7324 30.6914 43.873 33.1084 64H23.1768C21.3311 57.7598 26.5166 47.1689 25.5938 41.3242C24.627 34.7324 16.7607 43.917 19.1777 64H7.62012ZM50.7305 64C53.3232 53.2334 53.3232 47.4766 50.7305 36.71H62.2881C60.4424 44.0928 59.915 49.1025 60.5742 54.9912C60.6621 35.9629 72.8789 31.7441 75.6475 39.5664C76.2188 41.1484 76.3066 42.7305 76.1748 44.4004C79.6465 34.6885 87.4688 33.502 89.6221 39.5664C91.9512 46.0264 85.623 52.3984 91.8633 64H80.2617C78.416 57.7598 83.6016 47.1689 82.6787 41.3242C81.7119 34.7324 73.8018 43.873 76.2188 64H66.2871C64.4414 57.7598 69.627 47.1689 68.7041 41.3242C67.7373 34.7324 59.8711 43.917 62.2881 64H50.7305Z" fill="#C86FC9"/>
</svg>
