<svg width="33" height="33" viewBox="0 0 33 33" fill="none" xmlns="http://www.w3.org/2000/svg">
<g clip-path="url(#clip0_40_32)">
<path d="M17.875 20.625V27.5C17.875 28.259 17.259 28.875 16.5 28.875C15.741 28.875 15.125 28.259 15.125 27.5V22H14.0937C12.3846 22 11 20.6153 11 18.9062C11 17.8076 11.5761 16.8492 12.4396 16.3006C12.4011 16.1438 12.375 15.9816 12.375 15.8125C12.375 14.674 13.299 13.75 14.4375 13.75C14.7097 13.75 14.9668 13.805 15.2047 13.9012C15.4426 13.024 16.236 12.375 17.1875 12.375C17.9217 12.375 18.5611 12.76 18.9268 13.3375C19.2266 13.167 19.569 13.0625 19.9375 13.0625C21.076 13.0625 22 13.9865 22 15.125C23.5193 15.125 24.75 16.3556 24.75 17.875C24.75 19.3943 23.5193 20.625 22 20.625H17.875ZM15.6516 4.79322C15.7148 4.79322 15.7808 4.7891 15.8455 4.77947C16.5976 4.6736 17.1215 3.97785 17.0156 3.2271L16.7337 1.22235C16.6278 0.470221 15.9252 -0.0577792 15.18 0.0522208C14.4278 0.158096 13.904 0.853846 14.0098 1.60597L14.2917 3.60935C14.388 4.29685 14.9778 4.79322 15.6516 4.79322ZM22.5843 5.41472C22.7301 5.46422 22.8786 5.4876 23.0243 5.4876C23.5977 5.4876 24.1326 5.12597 24.3265 4.5526L24.9755 2.63447C25.2175 1.91535 24.8311 1.13435 24.112 0.890971C23.3901 0.646221 22.6118 1.03535 22.3685 1.75447L21.7208 3.67122C21.4775 4.39035 21.8652 5.17135 22.5843 5.41472ZM29.2118 9.3266C29.5652 9.3266 29.9172 9.19184 30.1867 8.92235L31.614 7.48822C32.1502 6.94922 32.1488 6.08022 31.6098 5.54397C31.0708 5.00772 30.2018 5.0091 29.6656 5.5481L28.237 6.98222C27.7021 7.52122 27.7035 8.3916 28.2411 8.92785C28.5092 9.1946 28.8598 9.3266 29.2118 9.3266ZM7.61196 6.8956C7.87871 7.28197 8.30771 7.48822 8.74359 7.48822C9.01309 7.48822 9.28671 7.40847 9.52459 7.24347C10.1488 6.81172 10.3056 5.9551 9.87246 5.33085L8.72159 3.66847C8.28984 3.04285 7.43321 2.88747 6.80896 3.31922C6.18471 3.75097 6.02796 4.6076 6.45971 5.23185L7.61196 6.8956ZM4.52234 10.2946L2.75546 9.3101C2.09271 8.94022 1.25534 9.1781 0.884089 9.84085C0.514214 10.5036 0.752089 11.3423 1.41484 11.7122L3.18446 12.6967C3.39621 12.815 3.62584 12.87 3.85134 12.87C4.33396 12.87 4.80284 12.6156 5.05446 12.1632C5.42434 11.5005 5.18646 10.6645 4.52234 10.2946ZM28.2246 11.946C25.2931 8.03135 20.4668 6.1806 15.6241 7.1156C10.6397 8.07947 6.66184 12.0821 5.72684 17.0761C5.08334 20.5122 6.26309 24.3237 8.96221 27.5343C9.38984 28.0431 9.62496 28.6756 9.62496 29.3136V31.6236C9.62496 32.3826 10.241 32.9986 11 32.9986C11.759 32.9986 12.375 32.3826 12.375 31.6236V29.3136C12.375 28.028 11.9102 26.7671 11.0673 25.7633C8.90034 23.1852 7.93921 20.2028 8.43009 17.5807C9.15884 13.6867 12.2608 10.5655 16.1466 9.81472C19.9416 9.07635 23.7297 10.5283 26.0562 13.6331C27.3061 15.1786 29.8196 20.5865 30.2032 21.9972H29.1431C28.4391 21.9972 27.8506 22.528 27.775 23.2278L27.4656 26.1566C27.2607 27.7035 25.9297 28.8722 24.3677 28.8722H24.0611C22.275 28.8722 21.3111 30.2885 21.3111 31.6222C21.3111 32.3812 21.9271 32.9972 22.6861 32.9972C23.4451 32.9972 24.0611 32.3812 24.0611 31.6222H24.7637C24.8916 31.6222 25.0153 31.6043 25.1336 31.5713C27.7296 31.229 29.8416 29.1665 30.1963 26.4811L30.3792 24.7472H30.4988C32.1227 24.7472 32.9986 23.4588 32.9986 22.2475C32.9986 20.6085 29.722 13.794 28.2232 11.9446L28.2246 11.946Z" fill="#34495E"/>
</g>
<defs>
<clipPath id="clip0_40_32">
<rect width="33" height="33" fill="white"/>
</clipPath>
</defs>
</svg>
