<svg width="500" height="500" viewBox="0 0 500 500" fill="none" xmlns="http://www.w3.org/2000/svg">
<path d="M248.27 73C248.27 73 182.91 76.31 140.71 131.66C98.51 187.01 97.3499 262.66 94.7799 323.89C92.2099 385.12 128.12 431.5 180.72 437.61C233.32 443.72 247.51 396.7 306.53 370.23C365.55 343.76 385.23 345.66 420.53 291.31C455.83 236.96 431.14 153.42 367.13 110.57C303.12 67.72 248.27 73 248.27 73Z" fill="#A9DFBF"/>
<path opacity="0.7" d="M248.27 73C248.27 73 182.91 76.31 140.71 131.66C98.51 187.01 97.3499 262.66 94.7799 323.89C92.2099 385.12 128.12 431.5 180.72 437.61C233.32 443.72 247.51 396.7 306.53 370.23C365.55 343.76 385.23 345.66 420.53 291.31C455.83 236.96 431.14 153.42 367.13 110.57C303.12 67.72 248.27 73 248.27 73Z" fill="white"/>
<path d="M145.38 296.3C143.992 296.297 142.662 295.744 141.681 294.762C140.701 293.779 140.15 292.448 140.15 291.06V232.8C140.15 231.599 139.673 230.446 138.823 229.597C137.974 228.747 136.821 228.27 135.62 228.27C134.419 228.27 133.266 228.747 132.417 229.597C131.567 230.446 131.09 231.599 131.09 232.8V276.3C131.035 277.495 130.521 278.622 129.656 279.448C128.791 280.274 127.641 280.734 126.445 280.734C125.249 280.734 124.099 280.274 123.234 279.448C122.369 278.622 121.855 277.495 121.8 276.3V252.3C121.825 251.845 121.757 251.39 121.6 250.963C121.443 250.535 121.201 250.144 120.888 249.814C120.575 249.483 120.197 249.22 119.779 249.04C119.361 248.86 118.91 248.767 118.455 248.767C118 248.767 117.549 248.86 117.131 249.04C116.713 249.22 116.335 249.483 116.022 249.814C115.709 250.144 115.467 250.535 115.31 250.963C115.153 251.39 115.085 251.845 115.11 252.3V261.23H107.73V260.23H114.11V252.3C114.082 251.712 114.173 251.124 114.379 250.572C114.584 250.021 114.9 249.516 115.306 249.09C115.712 248.664 116.201 248.325 116.742 248.093C117.283 247.861 117.866 247.741 118.455 247.741C119.044 247.741 119.626 247.861 120.168 248.093C120.709 248.325 121.197 248.664 121.604 249.09C122.01 249.516 122.325 250.021 122.531 250.572C122.737 251.124 122.828 251.712 122.8 252.3V276.3C122.849 277.234 123.254 278.113 123.932 278.757C124.611 279.4 125.51 279.759 126.445 279.759C127.38 279.759 128.279 279.4 128.957 278.757C129.636 278.113 130.041 277.234 130.09 276.3V232.8C130.09 231.333 130.673 229.927 131.71 228.89C132.747 227.853 134.153 227.27 135.62 227.27C137.087 227.27 138.493 227.853 139.53 228.89C140.567 229.927 141.15 231.333 141.15 232.8V291.06C141.122 291.633 141.211 292.207 141.411 292.745C141.611 293.283 141.919 293.775 142.315 294.19C142.711 294.606 143.187 294.937 143.715 295.163C144.243 295.389 144.811 295.506 145.385 295.506C145.959 295.506 146.527 295.389 147.055 295.163C147.583 294.937 148.059 294.606 148.455 294.19C148.851 293.775 149.158 293.283 149.359 292.745C149.559 292.207 149.648 291.633 149.62 291.06V220C149.585 219.096 149.733 218.195 150.055 217.35C150.376 216.505 150.865 215.733 151.492 215.082C152.119 214.43 152.872 213.911 153.704 213.557C154.536 213.203 155.431 213.021 156.335 213.021C157.239 213.021 158.134 213.203 158.966 213.557C159.798 213.911 160.551 214.43 161.177 215.082C161.804 215.733 162.293 216.505 162.615 217.35C162.937 218.195 163.085 219.096 163.05 220V290.75C163.05 291.951 163.527 293.104 164.377 293.953C165.226 294.803 166.379 295.28 167.58 295.28C168.781 295.28 169.934 294.803 170.783 293.953C171.633 293.104 172.11 291.951 172.11 290.75V234.36C172.11 232.657 172.786 231.024 173.99 229.82C175.194 228.616 176.827 227.94 178.53 227.94C180.233 227.94 181.866 228.616 183.07 229.82C184.274 231.024 184.95 232.657 184.95 234.36V276C184.95 277.045 185.365 278.047 186.104 278.786C186.843 279.525 187.845 279.94 188.89 279.94C189.935 279.94 190.937 279.525 191.676 278.786C192.415 278.047 192.83 277.045 192.83 276V253.34C192.886 252.122 193.409 250.972 194.291 250.13C195.173 249.288 196.346 248.818 197.565 248.818C198.784 248.818 199.957 249.288 200.839 250.13C201.721 250.972 202.244 252.122 202.3 253.34V260.21H209.67V261.21H201.3V253.34C201.25 252.383 200.835 251.481 200.14 250.821C199.445 250.161 198.523 249.793 197.565 249.793C196.607 249.793 195.685 250.161 194.99 250.821C194.295 251.481 193.88 252.383 193.83 253.34V276C193.83 277.31 193.31 278.567 192.383 279.493C191.457 280.419 190.2 280.94 188.89 280.94C187.58 280.94 186.323 280.419 185.397 279.493C184.47 278.567 183.95 277.31 183.95 276V234.36C183.95 232.922 183.379 231.544 182.362 230.527C181.346 229.511 179.967 228.94 178.53 228.94C177.092 228.94 175.714 229.511 174.697 230.527C173.681 231.544 173.11 232.922 173.11 234.36V290.74C173.11 292.207 172.527 293.613 171.49 294.65C170.453 295.687 169.047 296.27 167.58 296.27C166.113 296.27 164.707 295.687 163.67 294.65C162.633 293.613 162.05 292.207 162.05 290.74V220C162.082 219.229 161.958 218.46 161.686 217.739C161.413 217.017 160.997 216.358 160.463 215.802C159.929 215.245 159.289 214.802 158.579 214.499C157.87 214.197 157.106 214.041 156.335 214.041C155.564 214.041 154.8 214.197 154.091 214.499C153.381 214.802 152.741 215.245 152.207 215.802C151.673 216.358 151.257 217.017 150.984 217.739C150.712 218.46 150.588 219.229 150.62 220V291.07C150.615 292.457 150.061 293.786 149.079 294.766C148.097 295.746 146.767 296.297 145.38 296.3Z" fill="#C86FC9"/>
<path d="M241.88 296.3C240.492 296.297 239.162 295.744 238.181 294.762C237.201 293.779 236.65 292.448 236.65 291.06V232.8C236.65 231.599 236.173 230.446 235.323 229.597C234.474 228.747 233.321 228.27 232.12 228.27C230.919 228.27 229.766 228.747 228.917 229.597C228.067 230.446 227.59 231.599 227.59 232.8V276.3C227.535 277.495 227.021 278.622 226.156 279.448C225.291 280.274 224.141 280.734 222.945 280.734C221.749 280.734 220.599 280.274 219.734 279.448C218.869 278.622 218.355 277.495 218.3 276.3V252.3C218.325 251.845 218.257 251.39 218.1 250.963C217.943 250.535 217.701 250.144 217.388 249.814C217.075 249.483 216.697 249.22 216.279 249.04C215.861 248.86 215.41 248.767 214.955 248.767C214.5 248.767 214.049 248.86 213.631 249.04C213.213 249.22 212.835 249.483 212.522 249.814C212.209 250.144 211.967 250.535 211.81 250.963C211.653 251.39 211.585 251.845 211.61 252.3V261.23H204.23V260.23H210.61V252.3C210.582 251.712 210.673 251.124 210.879 250.572C211.084 250.021 211.4 249.516 211.806 249.09C212.212 248.664 212.701 248.325 213.242 248.093C213.783 247.861 214.366 247.741 214.955 247.741C215.544 247.741 216.126 247.861 216.668 248.093C217.209 248.325 217.698 248.664 218.104 249.09C218.51 249.516 218.825 250.021 219.031 250.572C219.237 251.124 219.328 251.712 219.3 252.3V276.3C219.349 277.234 219.754 278.113 220.432 278.757C221.111 279.4 222.01 279.759 222.945 279.759C223.88 279.759 224.779 279.4 225.457 278.757C226.136 278.113 226.541 277.234 226.59 276.3V232.8C226.59 231.333 227.173 229.927 228.21 228.89C229.247 227.853 230.653 227.27 232.12 227.27C233.587 227.27 234.993 227.853 236.03 228.89C237.067 229.927 237.65 231.333 237.65 232.8V291.06C237.622 291.633 237.711 292.207 237.911 292.745C238.111 293.283 238.419 293.775 238.815 294.19C239.211 294.606 239.687 294.937 240.215 295.163C240.743 295.389 241.311 295.506 241.885 295.506C242.459 295.506 243.027 295.389 243.555 295.163C244.083 294.937 244.559 294.606 244.955 294.19C245.351 293.775 245.658 293.283 245.859 292.745C246.059 292.207 246.148 291.633 246.12 291.06V220C246.085 219.096 246.233 218.195 246.555 217.35C246.876 216.505 247.365 215.733 247.992 215.082C248.619 214.43 249.372 213.911 250.204 213.557C251.036 213.203 251.931 213.021 252.835 213.021C253.739 213.021 254.634 213.203 255.466 213.557C256.298 213.911 257.051 214.43 257.678 215.082C258.304 215.733 258.794 216.505 259.115 217.35C259.437 218.195 259.585 219.096 259.55 220V290.75C259.55 291.951 260.027 293.104 260.877 293.953C261.726 294.803 262.879 295.28 264.08 295.28C265.281 295.28 266.434 294.803 267.283 293.953C268.133 293.104 268.61 291.951 268.61 290.75V234.36C268.61 232.657 269.286 231.024 270.49 229.82C271.694 228.616 273.327 227.94 275.03 227.94C276.733 227.94 278.366 228.616 279.57 229.82C280.774 231.024 281.45 232.657 281.45 234.36V276C281.45 277.045 281.865 278.047 282.604 278.786C283.343 279.525 284.345 279.94 285.39 279.94C286.435 279.94 287.437 279.525 288.176 278.786C288.915 278.047 289.33 277.045 289.33 276V253.34C289.33 252.085 289.828 250.882 290.715 249.995C291.602 249.108 292.806 248.61 294.06 248.61C295.314 248.61 296.518 249.108 297.405 249.995C298.292 250.882 298.79 252.085 298.79 253.34V260.21H306.17V261.21H297.79V253.34C297.79 252.351 297.397 251.402 296.697 250.702C295.998 250.003 295.049 249.61 294.06 249.61C293.071 249.61 292.122 250.003 291.422 250.702C290.723 251.402 290.33 252.351 290.33 253.34V276C290.33 277.31 289.81 278.567 288.883 279.493C287.957 280.419 286.7 280.94 285.39 280.94C284.08 280.94 282.823 280.419 281.897 279.493C280.97 278.567 280.45 277.31 280.45 276V234.36C280.45 232.922 279.879 231.544 278.863 230.527C277.846 229.511 276.467 228.94 275.03 228.94C273.593 228.94 272.214 229.511 271.197 230.527C270.181 231.544 269.61 232.922 269.61 234.36V290.74C269.61 292.207 269.027 293.613 267.99 294.65C266.953 295.687 265.547 296.27 264.08 296.27C262.613 296.27 261.207 295.687 260.17 294.65C259.133 293.613 258.55 292.207 258.55 290.74V220C258.582 219.229 258.458 218.46 258.186 217.739C257.913 217.017 257.497 216.358 256.963 215.802C256.429 215.245 255.789 214.802 255.079 214.499C254.37 214.197 253.606 214.041 252.835 214.041C252.064 214.041 251.3 214.197 250.591 214.499C249.881 214.802 249.241 215.245 248.707 215.802C248.173 216.358 247.757 217.017 247.484 217.739C247.212 218.46 247.088 219.229 247.12 220V291.07C247.115 292.457 246.561 293.786 245.579 294.766C244.597 295.746 243.267 296.297 241.88 296.3Z" fill="#C86FC9"/>
<path d="M338.38 296.3C336.992 296.297 335.662 295.744 334.681 294.762C333.701 293.779 333.15 292.448 333.15 291.06V232.8C333.15 231.599 332.673 230.446 331.823 229.597C330.974 228.747 329.821 228.27 328.62 228.27C327.419 228.27 326.266 228.747 325.417 229.597C324.567 230.446 324.09 231.599 324.09 232.8V276.3C324.035 277.495 323.521 278.622 322.656 279.448C321.791 280.274 320.641 280.734 319.445 280.734C318.249 280.734 317.099 280.274 316.234 279.448C315.369 278.622 314.855 277.495 314.8 276.3V252.3C314.825 251.845 314.757 251.39 314.6 250.963C314.443 250.535 314.201 250.144 313.888 249.814C313.575 249.483 313.197 249.22 312.779 249.04C312.361 248.86 311.91 248.767 311.455 248.767C311 248.767 310.549 248.86 310.131 249.04C309.713 249.22 309.335 249.483 309.022 249.814C308.709 250.144 308.467 250.535 308.31 250.963C308.153 251.39 308.085 251.845 308.11 252.3V261.23H300.72V260.23H307.11V252.3C307.082 251.712 307.173 251.124 307.379 250.572C307.584 250.021 307.9 249.516 308.306 249.09C308.712 248.664 309.201 248.325 309.742 248.093C310.283 247.861 310.866 247.741 311.455 247.741C312.044 247.741 312.626 247.861 313.168 248.093C313.709 248.325 314.197 248.664 314.604 249.09C315.01 249.516 315.325 250.021 315.531 250.572C315.737 251.124 315.828 251.712 315.8 252.3V276.3C315.849 277.234 316.254 278.113 316.932 278.757C317.611 279.4 318.51 279.759 319.445 279.759C320.38 279.759 321.279 279.4 321.957 278.757C322.636 278.113 323.041 277.234 323.09 276.3V232.8C323.09 231.333 323.673 229.927 324.71 228.89C325.747 227.853 327.153 227.27 328.62 227.27C330.087 227.27 331.493 227.853 332.53 228.89C333.567 229.927 334.15 231.333 334.15 232.8V291.06C334.122 291.633 334.211 292.207 334.411 292.745C334.611 293.283 334.919 293.775 335.315 294.19C335.711 294.606 336.187 294.937 336.715 295.163C337.243 295.389 337.811 295.506 338.385 295.506C338.959 295.506 339.527 295.389 340.055 295.163C340.583 294.937 341.059 294.606 341.455 294.19C341.851 293.775 342.158 293.283 342.359 292.745C342.559 292.207 342.648 291.633 342.62 291.06V220C342.585 219.096 342.733 218.195 343.055 217.35C343.376 216.505 343.865 215.733 344.492 215.082C345.119 214.43 345.871 213.911 346.704 213.557C347.536 213.203 348.431 213.021 349.335 213.021C350.239 213.021 351.134 213.203 351.966 213.557C352.798 213.911 353.551 214.43 354.177 215.082C354.804 215.733 355.293 216.505 355.615 217.35C355.937 218.195 356.085 219.096 356.05 220V290.75C356.05 291.951 356.527 293.104 357.377 293.953C358.226 294.803 359.379 295.28 360.58 295.28C361.781 295.28 362.934 294.803 363.783 293.953C364.633 293.104 365.11 291.951 365.11 290.75V234.36C365.11 232.657 365.786 231.024 366.99 229.82C368.194 228.616 369.827 227.94 371.53 227.94C373.233 227.94 374.866 228.616 376.07 229.82C377.274 231.024 377.95 232.657 377.95 234.36V276C377.95 277.045 378.365 278.047 379.104 278.786C379.843 279.525 380.845 279.94 381.89 279.94C382.935 279.94 383.937 279.525 384.676 278.786C385.415 278.047 385.83 277.045 385.83 276V253.34C385.83 252.085 386.328 250.882 387.215 249.995C388.102 249.108 389.305 248.61 390.56 248.61C391.814 248.61 393.018 249.108 393.905 249.995C394.792 250.882 395.29 252.085 395.29 253.34V260.21H402.67V261.21H394.29V253.34C394.29 252.351 393.897 251.402 393.197 250.702C392.498 250.003 391.549 249.61 390.56 249.61C389.571 249.61 388.622 250.003 387.922 250.702C387.223 251.402 386.83 252.351 386.83 253.34V276C386.83 277.31 386.31 278.567 385.383 279.493C384.457 280.419 383.2 280.94 381.89 280.94C380.58 280.94 379.323 280.419 378.397 279.493C377.47 278.567 376.95 277.31 376.95 276V234.36C376.95 232.922 376.379 231.544 375.362 230.527C374.346 229.511 372.967 228.94 371.53 228.94C370.092 228.94 368.714 229.511 367.697 230.527C366.681 231.544 366.11 232.922 366.11 234.36V290.74C366.11 292.207 365.527 293.613 364.49 294.65C363.453 295.687 362.047 296.27 360.58 296.27C359.113 296.27 357.707 295.687 356.67 294.65C355.633 293.613 355.05 292.207 355.05 290.74V220C355.082 219.229 354.958 218.46 354.686 217.739C354.413 217.017 353.997 216.358 353.463 215.802C352.929 215.245 352.288 214.802 351.579 214.499C350.87 214.197 350.106 214.041 349.335 214.041C348.564 214.041 347.8 214.197 347.091 214.499C346.381 214.802 345.74 215.245 345.207 215.802C344.673 216.358 344.257 217.017 343.984 217.739C343.712 218.46 343.588 219.229 343.62 220V291.07C343.615 292.457 343.061 293.786 342.079 294.766C341.097 295.746 339.767 296.297 338.38 296.3Z" fill="#C86FC9"/>
<path d="M252.21 106.59V97.3199L244.19 101.95L252.21 106.59Z" fill="#34495E"/>
<path d="M242.98 97.1H241.52V106.57H242.98V97.1Z" fill="#34495E"/>
<path d="M294.67 106.59L302.7 101.95L294.67 97.3199V106.59Z" fill="#34495E"/>
<path d="M305.37 97.1H303.91V106.57H305.37V97.1Z" fill="#34495E"/>
<path d="M273.91 88.49C271.469 88.49 269.084 89.2137 267.054 90.5697C265.025 91.9256 263.443 93.8528 262.509 96.1077C261.575 98.3625 261.331 100.844 261.807 103.237C262.283 105.631 263.459 107.83 265.184 109.556C266.91 111.281 269.109 112.457 271.503 112.933C273.896 113.409 276.378 113.165 278.632 112.231C280.887 111.297 282.814 109.715 284.17 107.686C285.526 105.656 286.25 103.271 286.25 100.83C286.25 97.5572 284.95 94.4185 282.636 92.1043C280.322 89.7901 277.183 88.49 273.91 88.49ZM272.16 107.33H268.49V94.33H272.16V107.33ZM279.33 107.33H275.66V94.33H279.33V107.33Z" fill="#34495E"/>
<path d="M85.29 182.3C84.8922 182.3 84.5107 182.142 84.2294 181.861C83.9481 181.579 83.79 181.198 83.79 180.8V167.25C83.79 166.852 83.9481 166.471 84.2294 166.189C84.5107 165.908 84.8922 165.75 85.29 165.75C85.6879 165.75 86.0694 165.908 86.3507 166.189C86.632 166.471 86.79 166.852 86.79 167.25V180.8C86.79 181.198 86.632 181.579 86.3507 181.861C86.0694 182.142 85.6879 182.3 85.29 182.3Z" fill="#34495E"/>
<path d="M80.3801 180.51C79.9823 180.51 79.6008 180.352 79.3195 180.071C79.0382 179.789 78.8801 179.408 78.8801 179.01V169C78.8801 168.602 79.0382 168.221 79.3195 167.939C79.6008 167.658 79.9823 167.5 80.3801 167.5C80.778 167.5 81.1595 167.658 81.4408 167.939C81.7221 168.221 81.8801 168.602 81.8801 169V179C81.8814 179.198 81.8436 179.394 81.7688 179.577C81.694 179.76 81.5838 179.927 81.4443 180.067C81.3049 180.207 81.1391 180.319 80.9565 180.395C80.7738 180.471 80.578 180.51 80.3801 180.51Z" fill="#34495E"/>
<path d="M75.47 180.51C75.0757 180.502 74.7003 180.339 74.4252 180.057C74.1501 179.774 73.9973 179.394 74 179V169C74 168.602 74.1581 168.221 74.4394 167.939C74.7207 167.658 75.1022 167.5 75.5 167.5C75.8979 167.5 76.2794 167.658 76.5607 167.939C76.842 168.221 77 168.602 77 169V179C77.0014 179.2 76.9626 179.399 76.886 179.584C76.8093 179.769 76.6963 179.937 76.5537 180.078C76.4111 180.219 76.2417 180.329 76.0556 180.404C75.8695 180.478 75.6704 180.514 75.47 180.51Z" fill="#34495E"/>
<path d="M134.37 180.51C133.972 180.51 133.591 180.352 133.309 180.071C133.028 179.789 132.87 179.408 132.87 179.01V169C132.87 168.602 133.028 168.221 133.309 167.939C133.591 167.658 133.972 167.5 134.37 167.5C134.768 167.5 135.149 167.658 135.431 167.939C135.712 168.221 135.87 168.602 135.87 169V179C135.871 179.198 135.834 179.394 135.759 179.577C135.684 179.76 135.574 179.927 135.434 180.067C135.295 180.207 135.129 180.319 134.946 180.395C134.764 180.471 134.568 180.51 134.37 180.51Z" fill="#34495E"/>
<path d="M129.47 180.51C129.076 180.502 128.7 180.339 128.425 180.057C128.15 179.774 127.997 179.394 128 179V169C128 168.602 128.158 168.221 128.439 167.939C128.721 167.658 129.102 167.5 129.5 167.5C129.898 167.5 130.279 167.658 130.561 167.939C130.842 168.221 131 168.602 131 169V179C131.001 179.2 130.963 179.399 130.886 179.584C130.809 179.769 130.696 179.937 130.554 180.078C130.411 180.219 130.242 180.329 130.056 180.404C129.869 180.478 129.67 180.514 129.47 180.51Z" fill="#34495E"/>
<path d="M90.2 182.3C89.8021 182.3 89.4206 182.142 89.1393 181.861C88.858 181.579 88.7 181.198 88.7 180.8V167.25C88.7 166.852 88.858 166.471 89.1393 166.189C89.4206 165.908 89.8021 165.75 90.2 165.75C90.5978 165.75 90.9793 165.908 91.2606 166.189C91.5419 166.471 91.7 166.852 91.7 167.25V180.8C91.7 181.198 91.5419 181.579 91.2606 181.861C90.9793 182.142 90.5978 182.3 90.2 182.3Z" fill="#34495E"/>
<path d="M95.1101 184.68C94.7123 184.68 94.3308 184.522 94.0494 184.241C93.7681 183.959 93.6101 183.578 93.6101 183.18V164.86C93.6101 164.462 93.7681 164.081 94.0494 163.799C94.3308 163.518 94.7123 163.36 95.1101 163.36C95.5079 163.36 95.8895 163.518 96.1708 163.799C96.4521 164.081 96.6101 164.462 96.6101 164.86V183.18C96.6101 183.578 96.4521 183.959 96.1708 184.241C95.8895 184.522 95.5079 184.68 95.1101 184.68Z" fill="#34495E"/>
<path d="M100 188.44C99.603 188.437 99.223 188.278 98.9422 187.998C98.6615 187.717 98.5026 187.337 98.5 186.94V161.11C98.5 160.712 98.658 160.331 98.9393 160.049C99.2206 159.768 99.6022 159.61 100 159.61C100.398 159.61 100.779 159.768 101.061 160.049C101.342 160.331 101.5 160.712 101.5 161.11V186.94C101.5 187.338 101.342 187.719 101.061 188.001C100.779 188.282 100.398 188.44 100 188.44Z" fill="#34495E"/>
<path d="M124.56 182.3C124.162 182.3 123.781 182.142 123.499 181.861C123.218 181.579 123.06 181.198 123.06 180.8V167.25C123.06 166.852 123.218 166.471 123.499 166.189C123.781 165.908 124.162 165.75 124.56 165.75C124.958 165.75 125.339 165.908 125.621 166.189C125.902 166.471 126.06 166.852 126.06 167.25V180.8C126.06 181.198 125.902 181.579 125.621 181.861C125.339 182.142 124.958 182.3 124.56 182.3Z" fill="#34495E"/>
<path d="M119.65 182.3C119.252 182.3 118.871 182.142 118.589 181.861C118.308 181.579 118.15 181.198 118.15 180.8V167.25C118.15 166.852 118.308 166.471 118.589 166.189C118.871 165.908 119.252 165.75 119.65 165.75C120.048 165.75 120.43 165.908 120.711 166.189C120.992 166.471 121.15 166.852 121.15 167.25V180.8C121.15 181.198 120.992 181.579 120.711 181.861C120.43 182.142 120.048 182.3 119.65 182.3Z" fill="#34495E"/>
<path d="M114.74 184.68C114.342 184.68 113.961 184.522 113.679 184.241C113.398 183.959 113.24 183.578 113.24 183.18V164.86C113.24 164.462 113.398 164.081 113.679 163.799C113.961 163.518 114.342 163.36 114.74 163.36C115.138 163.36 115.519 163.518 115.801 163.799C116.082 164.081 116.24 164.462 116.24 164.86V183.18C116.24 183.578 116.082 183.959 115.801 184.241C115.519 184.522 115.138 184.68 114.74 184.68Z" fill="#34495E"/>
<path d="M109.83 188.44C109.432 188.44 109.051 188.282 108.769 188.001C108.488 187.719 108.33 187.338 108.33 186.94V161.11C108.33 160.712 108.488 160.331 108.769 160.049C109.051 159.768 109.432 159.61 109.83 159.61C110.228 159.61 110.609 159.768 110.891 160.049C111.172 160.331 111.33 160.712 111.33 161.11V186.94C111.33 187.338 111.172 187.719 110.891 188.001C110.609 188.282 110.228 188.44 109.83 188.44Z" fill="#34495E"/>
<path d="M104.92 193.21C104.522 193.21 104.141 193.052 103.859 192.771C103.578 192.489 103.42 192.108 103.42 191.71V156.33C103.42 155.932 103.578 155.551 103.859 155.269C104.141 154.988 104.522 154.83 104.92 154.83C105.318 154.83 105.699 154.988 105.981 155.269C106.262 155.551 106.42 155.932 106.42 156.33V191.71C106.42 192.108 106.262 192.489 105.981 192.771C105.699 193.052 105.318 193.21 104.92 193.21Z" fill="#34495E"/>
<path d="M404.78 169.28C404.154 166.62 402.644 164.251 400.496 162.561C398.349 160.871 395.692 159.959 392.959 159.975C390.227 159.992 387.58 160.935 385.453 162.65C383.326 164.366 381.844 166.753 381.25 169.42C378.291 169.816 375.585 171.295 373.653 173.57C371.72 175.846 370.7 178.756 370.788 181.74C370.877 184.724 372.067 187.569 374.131 189.726C376.194 191.883 378.983 193.199 381.96 193.42L382.18 191C379.775 190.772 377.544 189.649 375.927 187.854C374.311 186.06 373.427 183.723 373.451 181.308C373.474 178.892 374.404 176.574 376.056 174.811C377.708 173.049 379.961 171.97 382.37 171.79L383.37 171.72L383.51 170.72C383.827 168.415 384.968 166.303 386.722 164.774C388.476 163.246 390.723 162.403 393.05 162.403C395.376 162.403 397.624 163.246 399.378 164.774C401.132 166.303 402.273 168.415 402.59 170.72L402.75 171.9L403.94 171.77C404.298 171.726 404.659 171.703 405.02 171.7C407.579 171.703 410.033 172.722 411.841 174.533C413.648 176.345 414.663 178.801 414.66 181.36C414.657 183.919 413.638 186.373 411.826 188.181C410.015 189.988 407.559 191.003 405 191V193.44C408.204 193.411 411.265 192.11 413.51 189.824C415.754 187.538 416.999 184.454 416.97 181.25C416.941 178.046 415.64 174.985 413.354 172.74C411.068 170.496 407.984 169.251 404.78 169.28Z" fill="#34495E"/>
<path d="M400.79 179.05C400.794 178.856 400.752 178.664 400.667 178.49C400.582 178.316 400.456 178.165 400.3 178.05C400.147 177.937 399.97 177.861 399.782 177.828C399.595 177.795 399.402 177.806 399.22 177.86L386.41 181.66C386.157 181.734 385.936 181.888 385.779 182.099C385.622 182.31 385.538 182.567 385.54 182.83V197.49C385.106 197.321 384.645 197.233 384.18 197.23C383.445 197.225 382.724 197.434 382.106 197.832C381.488 198.23 381 198.8 380.701 199.472C380.402 200.143 380.305 200.887 380.422 201.613C380.539 202.338 380.865 203.014 381.361 203.557C381.856 204.1 382.499 204.487 383.211 204.671C383.923 204.854 384.673 204.825 385.369 204.589C386.065 204.353 386.677 203.919 387.13 203.34C387.583 202.761 387.858 202.062 387.92 201.33H388V190.16L398.38 187.09V193.57C397.957 193.401 397.506 193.313 397.05 193.31C396.304 193.31 395.575 193.531 394.955 193.945C394.335 194.36 393.852 194.948 393.567 195.637C393.282 196.326 393.207 197.084 393.352 197.815C393.498 198.547 393.857 199.218 394.384 199.746C394.911 200.273 395.583 200.632 396.314 200.778C397.046 200.923 397.804 200.848 398.493 200.563C399.182 200.278 399.77 199.794 400.185 199.174C400.599 198.554 400.82 197.826 400.82 197.08V179.08L400.79 179.05ZM398.35 184.54L388 187.62V183.76L398.38 180.68L398.35 184.54Z" fill="#34495E"/>
<path d="M140.09 351.83C136.926 351.83 133.832 352.768 131.201 354.526C128.57 356.285 126.519 358.783 125.308 361.707C124.097 364.631 123.78 367.848 124.398 370.951C125.015 374.055 126.539 376.906 128.776 379.144C131.014 381.381 133.865 382.905 136.969 383.523C140.072 384.14 143.289 383.823 146.213 382.612C149.137 381.401 151.635 379.35 153.394 376.719C155.152 374.088 156.09 370.994 156.09 367.83C156.09 363.586 154.404 359.517 151.404 356.516C148.403 353.516 144.334 351.83 140.09 351.83ZM140.09 373.66C138.943 373.66 137.822 373.32 136.868 372.682C135.914 372.045 135.171 371.139 134.732 370.08C134.293 369.02 134.178 367.854 134.402 366.728C134.625 365.603 135.178 364.57 135.989 363.759C136.8 362.948 137.833 362.395 138.959 362.171C140.084 361.948 141.25 362.062 142.31 362.501C143.369 362.94 144.275 363.684 144.913 364.638C145.55 365.591 145.89 366.713 145.89 367.86C145.89 368.622 145.74 369.376 145.449 370.08C145.157 370.783 144.73 371.423 144.191 371.961C143.653 372.5 143.013 372.927 142.31 373.218C141.606 373.51 140.852 373.66 140.09 373.66Z" fill="#34495E"/>
<path d="M140.09 326.59C138.134 326.59 136.222 327.17 134.595 328.257C132.969 329.343 131.701 330.888 130.953 332.695C130.204 334.502 130.008 336.491 130.39 338.409C130.772 340.328 131.714 342.09 133.097 343.473C134.48 344.856 136.242 345.798 138.161 346.18C140.079 346.562 142.068 346.366 143.875 345.617C145.682 344.869 147.226 343.601 148.313 341.975C149.4 340.348 149.98 338.436 149.98 336.48C149.981 335.181 149.726 333.894 149.23 332.694C148.733 331.493 148.005 330.402 147.086 329.484C146.168 328.565 145.077 327.837 143.876 327.34C142.676 326.844 141.389 326.589 140.09 326.59ZM140.09 340.05C139.381 340.052 138.688 339.843 138.097 339.451C137.507 339.058 137.047 338.499 136.774 337.845C136.502 337.19 136.43 336.469 136.568 335.774C136.706 335.079 137.047 334.44 137.549 333.939C138.05 333.437 138.689 333.096 139.384 332.958C140.079 332.82 140.8 332.892 141.455 333.164C142.109 333.437 142.668 333.897 143.061 334.487C143.453 335.078 143.662 335.771 143.66 336.48C143.66 336.949 143.568 337.413 143.388 337.846C143.209 338.279 142.946 338.673 142.614 339.004C142.283 339.336 141.889 339.599 141.456 339.778C141.023 339.958 140.559 340.05 140.09 340.05Z" fill="#34495E"/>
<path d="M156.74 389.05H123.44C122.262 389.05 121.131 388.583 120.297 387.75C119.463 386.918 118.993 385.788 118.99 384.61V325.46C118.993 324.282 119.463 323.152 120.297 322.32C121.131 321.487 122.262 321.02 123.44 321.02H156.74C157.918 321.02 159.047 321.488 159.88 322.32C160.712 323.153 161.18 324.282 161.18 325.46V384.61C161.18 385.193 161.065 385.77 160.842 386.309C160.619 386.848 160.292 387.337 159.88 387.75C159.467 388.162 158.978 388.489 158.439 388.712C157.9 388.935 157.323 389.05 156.74 389.05ZM123.44 322.05C122.527 322.05 121.651 322.412 121.004 323.057C120.357 323.702 119.993 324.577 119.99 325.49V384.64C119.993 385.553 120.357 386.428 121.004 387.073C121.651 387.718 122.527 388.08 123.44 388.08H156.74C157.652 388.077 158.525 387.714 159.17 387.07C159.814 386.425 160.177 385.552 160.18 384.64V325.46C160.177 324.548 159.814 323.675 159.17 323.03C158.525 322.386 157.652 322.023 156.74 322.02L123.44 322.05Z" fill="#34495E"/>
<path d="M228.33 151.66C228.33 150.27 230.23 148.77 230.05 147.43C229.87 146.09 227.65 145.09 227.3 143.78C226.95 142.47 228.39 140.51 227.87 139.25C227.35 137.99 224.94 137.63 224.26 136.45C223.58 135.27 224.46 133.01 223.63 131.92C222.8 130.83 220.39 131.12 219.42 130.15C218.45 129.18 218.73 126.77 217.64 125.94C216.55 125.11 214.31 126 213.12 125.31C211.93 124.62 211.59 122.23 210.32 121.7C209.05 121.17 207.12 122.63 205.79 122.27C204.46 121.91 203.52 119.69 202.14 119.51C200.76 119.33 199.3 121.24 197.91 121.24C196.52 121.24 195.02 119.34 193.68 119.51C192.34 119.68 191.35 121.92 190.04 122.27C188.73 122.62 186.76 121.18 185.5 121.7C184.24 122.22 183.88 124.63 182.7 125.31C181.52 125.99 179.26 125.1 178.18 125.94C177.1 126.78 177.37 129.18 176.4 130.15C175.43 131.12 173.03 130.83 172.19 131.92C171.35 133.01 172.25 135.26 171.57 136.45C170.89 137.64 168.48 137.98 167.96 139.25C167.44 140.52 168.88 142.45 168.52 143.78C168.16 145.11 165.95 146.05 165.77 147.42C165.59 148.79 167.5 150.27 167.5 151.66C167.5 153.05 165.59 154.54 165.77 155.89C165.95 157.24 168.17 158.22 168.52 159.53C168.87 160.84 167.43 162.81 167.96 164.06C168.49 165.31 170.88 165.68 171.57 166.87C172.26 168.06 171.36 170.31 172.19 171.39C173.02 172.47 175.44 172.19 176.4 173.16C177.36 174.13 177.09 176.54 178.18 177.37C179.27 178.2 181.51 177.31 182.7 178C183.89 178.69 184.23 181.08 185.5 181.61C186.77 182.14 188.7 180.69 190.04 181.04C191.38 181.39 192.31 183.62 193.68 183.8C195.05 183.98 196.52 182.07 197.91 182.07C199.3 182.07 200.8 183.97 202.14 183.8C203.48 183.63 204.47 181.39 205.79 181.04C207.11 180.69 209.06 182.13 210.32 181.61C211.58 181.09 211.94 178.68 213.12 178C214.3 177.32 216.56 178.21 217.65 177.37C218.74 176.53 218.45 174.13 219.42 173.16C220.39 172.19 222.79 172.48 223.63 171.39C224.47 170.3 223.57 168.05 224.26 166.86C224.95 165.67 227.34 165.34 227.87 164.06C228.4 162.78 226.94 160.87 227.3 159.53C227.66 158.19 229.87 157.26 230.05 155.89C230.23 154.52 228.33 153.05 228.33 151.66Z" fill="#263238"/>
<path d="M193.86 184.31H193.62C192.713 184.069 191.92 183.517 191.38 182.75C190.994 182.234 190.49 181.819 189.91 181.54C189.254 181.491 188.596 181.597 187.99 181.85C187.152 182.242 186.204 182.327 185.31 182.09C184.509 181.616 183.895 180.882 183.57 180.01C183.503 179.69 183.369 179.387 183.178 179.121C182.986 178.856 182.741 178.634 182.459 178.469C182.176 178.304 181.862 178.2 181.536 178.164C181.211 178.128 180.882 178.161 180.57 178.26C179.655 178.417 178.715 178.25 177.91 177.79C177.263 177.127 176.86 176.262 176.77 175.34C176.79 175.009 176.74 174.677 176.623 174.366C176.505 174.055 176.324 173.773 176.089 173.538C175.855 173.303 175.573 173.12 175.263 173.001C174.953 172.883 174.621 172.831 174.29 172.85C173.367 172.768 172.501 172.369 171.84 171.72C171.379 170.915 171.213 169.974 171.37 169.06C171.464 168.413 171.395 167.753 171.17 167.14C170.755 166.643 170.222 166.257 169.62 166.02C169.159 165.923 168.728 165.715 168.364 165.415C168.001 165.115 167.716 164.731 167.534 164.296C167.352 163.861 167.279 163.388 167.32 162.919C167.361 162.449 167.515 161.997 167.77 161.6C167.954 161.325 168.078 161.013 168.133 160.687C168.188 160.36 168.172 160.025 168.088 159.705C168.004 159.384 167.853 159.085 167.645 158.828C167.436 158.57 167.176 158.359 166.88 158.21C166.117 157.663 165.564 156.873 165.31 155.97C165.326 155.052 165.654 154.167 166.24 153.46C166.492 153.236 166.693 152.961 166.831 152.653C166.969 152.346 167.041 152.012 167.041 151.675C167.041 151.338 166.969 151.005 166.831 150.697C166.693 150.389 166.492 150.114 166.24 149.89C165.651 149.185 165.322 148.299 165.31 147.38C165.561 146.478 166.116 145.691 166.88 145.15C167.393 144.761 167.805 144.253 168.08 143.67C168.14 143.017 168.033 142.36 167.77 141.76C167.515 141.363 167.361 140.909 167.32 140.439C167.279 139.969 167.353 139.496 167.535 139.061C167.716 138.625 168.001 138.24 168.364 137.939C168.727 137.637 169.158 137.429 169.62 137.33C169.94 137.263 170.243 137.129 170.508 136.938C170.774 136.747 170.996 136.502 171.161 136.219C171.326 135.936 171.43 135.622 171.466 135.297C171.502 134.971 171.469 134.642 171.37 134.33C171.227 133.881 171.196 133.405 171.277 132.941C171.359 132.478 171.551 132.041 171.838 131.668C172.124 131.294 172.497 130.996 172.924 130.798C173.351 130.6 173.82 130.508 174.29 130.53C174.936 130.453 175.554 130.22 176.09 129.85C176.46 129.314 176.693 128.696 176.77 128.05C176.745 127.579 176.836 127.109 177.033 126.681C177.23 126.253 177.529 125.879 177.903 125.592C178.277 125.305 178.715 125.112 179.179 125.032C179.644 124.952 180.121 124.985 180.57 125.13C181.217 125.214 181.874 125.146 182.49 124.93C182.984 124.509 183.369 123.973 183.61 123.37C183.71 122.911 183.92 122.483 184.221 122.122C184.522 121.761 184.906 121.479 185.34 121.298C185.774 121.117 186.245 121.044 186.713 121.085C187.182 121.125 187.633 121.278 188.03 121.53C188.306 121.714 188.618 121.837 188.945 121.891C189.272 121.945 189.607 121.929 189.928 121.844C190.248 121.759 190.547 121.607 190.804 121.398C191.062 121.188 191.271 120.927 191.42 120.63C191.965 119.868 192.756 119.317 193.66 119.07C194.577 119.08 195.463 119.405 196.17 119.99C196.689 120.397 197.3 120.672 197.95 120.79C198.6 120.674 199.212 120.4 199.73 119.99C200.048 119.643 200.445 119.378 200.888 119.218C201.331 119.058 201.805 119.007 202.272 119.07C202.739 119.132 203.183 119.307 203.567 119.579C203.952 119.851 204.265 120.211 204.48 120.63C204.868 121.147 205.376 121.562 205.96 121.84C206.612 121.889 207.266 121.782 207.87 121.53C208.266 121.278 208.718 121.125 209.186 121.085C209.654 121.044 210.126 121.117 210.559 121.298C210.993 121.479 211.377 121.761 211.678 122.122C211.98 122.483 212.189 122.911 212.29 123.37C212.357 123.69 212.491 123.993 212.682 124.259C212.873 124.524 213.118 124.747 213.401 124.912C213.684 125.076 213.998 125.18 214.323 125.216C214.649 125.252 214.978 125.219 215.29 125.12C216.204 124.974 217.141 125.14 217.95 125.59C218.599 126.256 219.001 127.124 219.09 128.05C219.168 128.693 219.402 129.307 219.77 129.84C220.305 130.213 220.923 130.45 221.57 130.53C222.04 130.508 222.508 130.6 222.935 130.798C223.362 130.996 223.735 131.294 224.022 131.668C224.309 132.041 224.501 132.478 224.583 132.941C224.664 133.405 224.632 133.881 224.49 134.33C224.391 134.642 224.358 134.971 224.394 135.297C224.43 135.622 224.533 135.936 224.698 136.219C224.863 136.502 225.086 136.747 225.351 136.938C225.617 137.129 225.919 137.263 226.24 137.33C226.701 137.429 227.132 137.637 227.495 137.939C227.858 138.24 228.143 138.625 228.325 139.061C228.507 139.496 228.58 139.969 228.54 140.439C228.499 140.909 228.344 141.363 228.09 141.76C227.832 142.362 227.725 143.018 227.78 143.67C228.058 144.251 228.469 144.758 228.98 145.15C229.399 145.363 229.761 145.674 230.034 146.057C230.306 146.44 230.482 146.884 230.546 147.35C230.61 147.816 230.56 148.29 230.401 148.733C230.241 149.175 229.976 149.572 229.63 149.89C229.378 150.114 229.176 150.389 229.038 150.697C228.9 151.005 228.829 151.338 228.829 151.675C228.829 152.012 228.9 152.346 229.038 152.653C229.176 152.961 229.378 153.236 229.63 153.46C230.215 154.166 230.54 155.053 230.55 155.97C230.296 156.873 229.742 157.663 228.98 158.21C228.468 158.597 228.056 159.101 227.78 159.68C227.724 160.336 227.83 160.995 228.09 161.6C228.344 161.997 228.499 162.449 228.54 162.919C228.581 163.388 228.507 163.861 228.325 164.296C228.143 164.731 227.859 165.115 227.495 165.415C227.132 165.715 226.701 165.923 226.24 166.02C225.637 166.257 225.104 166.643 224.69 167.14C224.464 167.753 224.395 168.413 224.49 169.06C224.633 169.508 224.665 169.984 224.583 170.447C224.502 170.911 224.309 171.347 224.022 171.72C223.735 172.092 223.362 172.39 222.935 172.587C222.508 172.784 222.04 172.874 221.57 172.85C221.239 172.831 220.908 172.882 220.599 173C220.289 173.118 220.008 173.3 219.774 173.535C219.54 173.769 219.358 174.05 219.24 174.359C219.122 174.669 219.071 174.999 219.09 175.33C219.114 175.801 219.023 176.271 218.825 176.699C218.628 177.127 218.33 177.501 217.957 177.789C217.583 178.077 217.145 178.271 216.681 178.353C216.217 178.435 215.739 178.403 215.29 178.26C214.978 178.161 214.649 178.128 214.323 178.164C213.998 178.2 213.684 178.304 213.401 178.469C213.118 178.634 212.873 178.856 212.682 179.121C212.491 179.387 212.357 179.69 212.29 180.01C212.189 180.469 211.98 180.897 211.678 181.258C211.377 181.619 210.993 181.901 210.559 182.082C210.126 182.263 209.654 182.336 209.186 182.296C208.718 182.255 208.266 182.102 207.87 181.85C207.267 181.596 206.612 181.49 205.96 181.54C205.376 181.818 204.868 182.233 204.48 182.75C204.265 183.169 203.952 183.529 203.567 183.801C203.183 184.073 202.739 184.248 202.272 184.31C201.805 184.373 201.331 184.322 200.888 184.162C200.445 184.002 200.048 183.737 199.73 183.39C199.212 182.981 198.6 182.706 197.95 182.59C197.3 182.708 196.689 182.983 196.17 183.39C195.5 183.904 194.7 184.223 193.86 184.31ZM189.57 180.48C189.772 180.482 189.974 180.509 190.17 180.56C190.961 180.863 191.653 181.378 192.17 182.05C192.7 182.63 193.25 183.23 193.79 183.3C194.468 183.228 195.111 182.961 195.64 182.53C195.944 182.225 196.306 181.983 196.704 181.819C197.102 181.654 197.529 181.569 197.96 181.569C198.391 181.569 198.817 181.654 199.215 181.819C199.614 181.983 199.975 182.225 200.28 182.53C200.809 182.961 201.452 183.228 202.13 183.3C202.67 183.23 203.22 182.63 203.76 182.05C204.258 181.381 204.934 180.865 205.71 180.56C206.547 180.437 207.402 180.547 208.18 180.88C208.805 181.165 209.501 181.259 210.18 181.15C210.68 180.94 211.05 180.22 211.42 179.53C211.53 179.116 211.721 178.727 211.982 178.387C212.243 178.047 212.569 177.763 212.942 177.55C213.314 177.337 213.724 177.2 214.15 177.146C214.575 177.093 215.007 177.125 215.42 177.24C216.098 177.351 216.793 177.261 217.42 176.98C217.86 176.445 218.128 175.79 218.19 175.1C218.291 174.264 218.62 173.472 219.14 172.81C219.8 172.288 220.593 171.959 221.43 171.86C221.784 171.915 222.147 171.874 222.48 171.741C222.813 171.608 223.105 171.388 223.323 171.104C223.542 170.82 223.681 170.482 223.724 170.126C223.767 169.77 223.714 169.409 223.57 169.08C223.455 168.242 223.569 167.389 223.9 166.61C224.416 165.936 225.108 165.417 225.9 165.11C226.6 164.75 227.32 164.37 227.52 163.87C227.638 163.191 227.544 162.493 227.25 161.87C226.922 161.091 226.811 160.237 226.93 159.4C227.237 158.608 227.756 157.916 228.43 157.4C229.01 156.87 229.61 156.31 229.68 155.77C229.606 155.093 229.335 154.453 228.9 153.93C228.377 153.258 228.049 152.456 227.95 151.61C228.045 150.764 228.374 149.96 228.9 149.29C229.335 148.763 229.607 148.12 229.68 147.44C229.61 146.9 229.01 146.35 228.43 145.81C227.753 145.296 227.234 144.603 226.93 143.81C226.811 142.973 226.922 142.119 227.25 141.34C227.545 140.717 227.639 140.019 227.52 139.34C227.32 138.84 226.6 138.46 225.9 138.1C225.106 137.797 224.413 137.277 223.9 136.6C223.57 135.825 223.456 134.975 223.57 134.14C223.717 133.811 223.772 133.449 223.73 133.091C223.687 132.733 223.549 132.394 223.33 132.108C223.111 131.822 222.819 131.601 222.484 131.468C222.15 131.334 221.785 131.294 221.43 131.35C220.593 131.251 219.8 130.923 219.14 130.4C218.62 129.738 218.291 128.946 218.19 128.11C218.128 127.42 217.86 126.765 217.42 126.23C216.793 125.95 216.098 125.859 215.42 125.97C214.585 126.096 213.732 125.981 212.96 125.64C212.291 125.139 211.772 124.465 211.46 123.69C211.09 122.99 210.72 122.27 210.22 122.06C209.541 121.951 208.845 122.045 208.22 122.33C207.442 122.663 206.587 122.774 205.75 122.65C204.974 122.345 204.298 121.829 203.8 121.16C203.26 120.58 202.71 119.98 202.17 119.91C201.488 119.977 200.843 120.249 200.32 120.69C199.701 121.298 198.868 121.639 198 121.639C197.132 121.639 196.299 121.298 195.68 120.69C195.154 120.253 194.51 119.981 193.83 119.91C193.29 119.98 192.74 120.58 192.21 121.16C191.776 121.901 191.066 122.439 190.236 122.659C189.406 122.878 188.523 122.76 187.78 122.33C187.154 122.045 186.459 121.951 185.78 122.06C185.28 122.27 184.91 122.99 184.54 123.69C184.23 124.467 183.711 125.142 183.04 125.64C182.268 125.981 181.415 126.096 180.58 125.97C180.251 125.825 179.888 125.772 179.531 125.815C179.174 125.859 178.835 125.998 178.551 126.219C178.266 126.439 178.046 126.731 177.914 127.066C177.782 127.401 177.742 127.765 177.8 128.12C177.682 128.957 177.336 129.746 176.8 130.4C176.139 130.923 175.346 131.251 174.51 131.35C173.82 131.419 173.166 131.691 172.63 132.13C172.345 132.756 172.254 133.452 172.37 134.13C172.484 134.965 172.37 135.815 172.04 136.59C171.527 137.267 170.834 137.787 170.04 138.09C169.34 138.45 168.62 138.83 168.42 139.33C168.306 140.009 168.4 140.706 168.69 141.33C169.116 142.072 169.233 142.953 169.014 143.781C168.794 144.608 168.258 145.316 167.52 145.75C166.94 146.29 166.34 146.84 166.27 147.38C166.339 148.059 166.607 148.703 167.04 149.23C167.583 149.895 167.93 150.699 168.04 151.55C167.925 152.4 167.58 153.203 167.04 153.87C166.605 154.393 166.337 155.034 166.27 155.71C166.34 156.25 166.94 156.81 167.52 157.34C168.189 157.859 168.704 158.551 169.01 159.34C169.133 160.177 169.023 161.032 168.69 161.81C168.405 162.436 168.311 163.131 168.42 163.81C168.62 164.31 169.34 164.69 170.04 165.05C170.834 165.357 171.527 165.88 172.04 166.56C172.371 167.335 172.485 168.185 172.37 169.02C172.226 169.349 172.172 169.71 172.216 170.066C172.259 170.422 172.397 170.76 172.616 171.044C172.835 171.328 173.126 171.548 173.459 171.681C173.793 171.814 174.155 171.855 174.51 171.8C175.346 171.899 176.139 172.228 176.8 172.75C177.338 173.406 177.684 174.199 177.8 175.04C177.744 175.394 177.785 175.757 177.918 176.09C178.051 176.424 178.272 176.715 178.556 176.934C178.84 177.152 179.178 177.291 179.534 177.334C179.89 177.377 180.251 177.324 180.58 177.18C181.414 176.954 182.304 177.067 183.054 177.497C183.804 177.926 184.353 178.636 184.58 179.47C184.94 180.16 185.32 180.88 185.81 181.09C186.489 181.199 187.184 181.105 187.81 180.82C188.378 180.625 188.97 180.511 189.57 180.48Z" fill="#263238"/>
<path d="M181.19 161.42C180.996 161.422 180.805 161.367 180.642 161.262C180.479 161.157 180.349 161.007 180.27 160.83C179.523 159.136 178.989 157.356 178.68 155.53C176.68 144.25 183.57 133.61 193.93 131.82C204.29 130.03 214.3 137.82 216.25 149.05C216.36 149.71 216.45 150.36 216.5 151.05C216.511 151.181 216.496 151.314 216.456 151.439C216.416 151.565 216.352 151.681 216.267 151.782C216.182 151.883 216.078 151.966 215.961 152.026C215.844 152.087 215.716 152.124 215.585 152.135C215.454 152.146 215.321 152.131 215.196 152.091C215.07 152.052 214.954 151.987 214.853 151.902C214.752 151.817 214.669 151.713 214.608 151.596C214.548 151.479 214.511 151.351 214.5 151.22C214.5 150.63 214.37 150.03 214.27 149.43C212.51 139.23 203.54 132.24 194.27 133.83C185 135.42 178.89 145.03 180.65 155.23C180.937 156.873 181.423 158.475 182.1 160C182.153 160.12 182.182 160.25 182.185 160.381C182.189 160.512 182.166 160.643 182.118 160.766C182.071 160.888 182 161 181.909 161.096C181.819 161.191 181.71 161.267 181.59 161.32C181.465 161.381 181.329 161.415 181.19 161.42Z" fill="white"/>
<path d="M181.19 161.92C180.899 161.921 180.613 161.837 180.368 161.679C180.124 161.521 179.93 161.296 179.81 161.03C179.051 159.299 178.503 157.482 178.18 155.62C177.197 150.159 178.3 144.527 181.27 139.84C182.643 137.61 184.474 135.698 186.643 134.231C188.812 132.764 191.268 131.775 193.849 131.33C196.429 130.886 199.075 130.996 201.61 131.652C204.144 132.309 206.51 133.498 208.55 135.14C212.925 138.567 215.849 143.515 216.74 149C216.86 149.66 216.94 150.34 217 151C217.016 151.196 216.994 151.394 216.934 151.582C216.874 151.769 216.778 151.943 216.651 152.094C216.523 152.244 216.368 152.368 216.193 152.458C216.018 152.549 215.826 152.604 215.63 152.62C215.433 152.639 215.234 152.619 215.046 152.56C214.857 152.501 214.682 152.405 214.531 152.277C214.38 152.149 214.256 151.993 214.166 151.816C214.077 151.64 214.024 151.447 214.01 151.25C214.01 150.68 213.89 150.09 213.79 149.51C212.08 139.58 203.36 132.77 194.36 134.32C185.36 135.87 179.43 145.21 181.14 155.14C181.418 156.762 181.895 158.344 182.56 159.85C182.643 160.032 182.689 160.228 182.695 160.427C182.701 160.627 182.667 160.826 182.595 161.012C182.524 161.198 182.415 161.368 182.277 161.512C182.139 161.656 181.973 161.771 181.79 161.85C181.598 161.917 181.393 161.941 181.19 161.92ZM196.94 132.06C195.961 132.064 194.985 132.147 194.02 132.31C191.579 132.747 189.258 133.692 187.206 135.084C185.154 136.476 183.418 138.284 182.11 140.39C179.272 144.862 178.222 150.239 179.17 155.45C179.476 157.234 180 158.974 180.73 160.63C180.787 160.749 180.887 160.841 181.01 160.888C181.133 160.934 181.269 160.931 181.39 160.88C181.51 160.825 181.604 160.725 181.651 160.602C181.698 160.478 181.694 160.341 181.64 160.22C180.946 158.64 180.445 156.981 180.15 155.28C178.35 144.81 184.64 134.95 194.15 133.28C203.66 131.61 212.93 138.82 214.73 149.28C214.84 149.89 214.92 150.51 214.97 151.11C214.975 151.175 214.993 151.239 215.023 151.297C215.053 151.356 215.095 151.407 215.145 151.449C215.195 151.491 215.253 151.523 215.316 151.542C215.379 151.561 215.445 151.567 215.51 151.56C215.641 151.549 215.763 151.488 215.85 151.39C215.893 151.339 215.925 151.28 215.944 151.217C215.963 151.153 215.968 151.086 215.96 151.02C215.91 150.39 215.83 149.75 215.72 149.11C214.864 143.881 212.073 139.165 207.9 135.9C204.774 133.44 200.918 132.089 196.94 132.06Z" fill="#263238"/>
<path d="M248.24 305.35C248.24 305.35 288.87 295.35 301.53 283.35C301.53 283.35 297.87 302.35 304.53 312.35C311.19 322.35 337.81 348.81 342.47 354.14C347.13 359.47 355.87 372.02 358.53 371.68C361.19 371.34 368.53 359.35 370.87 356.02C373.21 352.69 377.26 350.57 377.92 344.9C378.58 339.23 375.26 338.9 373.92 340.57C372.58 342.24 365.71 347.45 361.37 348.78C357.03 350.11 352.37 351.67 352.37 351.67C345.375 341.854 339.188 331.487 333.87 320.67C325.87 304 317.55 272.67 314.87 266.35C312.19 260.03 308.2 258.02 303.2 258.02C298.2 258.02 282.2 258.02 254.2 270.35C226.2 282.68 227.2 294.68 229.87 299.02C232.54 303.36 239.2 307.07 248.24 305.35Z" fill="#263238"/>
<path d="M358.44 372.24C356.36 372.24 352.44 367.5 346.8 360.33C345.06 358.12 343.41 356.03 342.1 354.52C340.79 353.01 337.71 349.82 333.81 345.77C323.9 335.46 308.92 319.88 304.12 312.68C298.4 304.1 300.12 289.36 300.8 284.68C287.18 296.19 249.98 305.4 248.36 305.8C239.16 307.54 232.24 303.8 229.47 299.28C228.728 297.98 228.276 296.534 228.145 295.043C228.014 293.552 228.207 292.05 228.71 290.64C230.29 285.57 235.97 277.85 254.03 269.89C282.13 257.52 298.03 257.52 303.23 257.52C309.02 257.52 312.88 260.26 315.36 266.16C316.25 268.28 317.77 273.16 319.69 279.34C323.62 292.01 329.01 309.34 334.33 320.45C339.59 331.126 345.689 341.369 352.57 351.08C353.74 350.7 357.64 349.41 361.25 348.3C365.51 347 372.32 341.81 373.56 340.3C373.904 339.842 374.388 339.509 374.938 339.35C375.488 339.192 376.075 339.216 376.61 339.42C377.32 339.71 378.94 340.86 378.45 345C377.96 349.14 375.78 351.42 373.67 353.62C372.813 354.463 372.023 355.372 371.31 356.34C370.86 356.98 370.24 357.92 369.5 359.04C365.03 365.83 360.83 371.94 358.63 372.22L358.44 372.24ZM301.53 282.9C301.614 282.899 301.696 282.919 301.77 282.96C301.863 283.01 301.938 283.089 301.984 283.184C302.031 283.279 302.047 283.386 302.03 283.49C302.03 283.68 298.47 302.41 304.95 312.12C309.7 319.25 324.64 334.79 334.53 345.12C338.43 349.18 341.53 352.38 342.85 353.91C344.17 355.44 345.85 357.53 347.59 359.75C351.27 364.42 356.87 371.48 358.47 371.28C360.4 371.04 365.96 362.6 368.64 358.54C369.38 357.41 370.01 356.46 370.46 355.82C371.206 354.809 372.029 353.856 372.92 352.97C374.92 350.89 376.98 348.74 377.43 344.97C377.71 342.56 377.25 340.86 376.19 340.42C375.856 340.304 375.493 340.297 375.155 340.401C374.816 340.506 374.52 340.716 374.31 341C372.99 342.66 366.02 348 361.52 349.38C357.24 350.7 352.52 352.25 352.52 352.27C352.416 352.285 352.31 352.268 352.216 352.219C352.123 352.171 352.047 352.094 352 352C344.989 342.153 338.786 331.756 333.45 320.91C328.09 309.75 322.69 292.36 318.75 279.67C316.84 273.52 315.33 268.67 314.46 266.57C312.12 261.02 308.66 258.57 303.25 258.57C298.08 258.57 282.36 258.57 254.45 270.86C236.74 278.66 231.21 286.11 229.69 290.99C229.23 292.262 229.05 293.618 229.162 294.966C229.274 296.314 229.676 297.622 230.34 298.8C232.93 303.01 239.45 306.52 248.18 304.87C249.1 304.64 288.9 294.73 301.24 283.04C301.319 282.963 301.421 282.914 301.53 282.9Z" fill="#263238"/>
<path d="M377.92 345C378.59 339.34 375.26 339 373.92 340.67C372.58 342.34 365.71 347.55 361.37 348.88C357.03 350.21 352.37 351.77 352.37 351.77C346.624 343.703 341.413 335.268 336.77 326.52C334.053 330.846 330.104 334.259 325.43 336.32C333.08 344.38 340.27 351.71 342.49 354.24C347.16 359.58 355.89 372.12 358.55 371.78C361.21 371.44 368.55 359.45 370.89 356.12C373.23 352.79 377.26 350.62 377.92 345Z" fill="#D9D9D9"/>
<path d="M358.44 372.24C356.36 372.24 352.44 367.5 346.8 360.33C345.06 358.12 343.41 356.03 342.1 354.52C340.79 353.01 337.7 349.81 333.8 345.75C331.15 343.01 328.14 339.87 325.05 336.62C324.993 336.562 324.951 336.491 324.928 336.413C324.904 336.335 324.9 336.253 324.916 336.173C324.932 336.093 324.967 336.018 325.018 335.955C325.069 335.892 325.135 335.842 325.21 335.81C329.793 333.789 333.666 330.442 336.33 326.2C336.381 326.129 336.449 326.07 336.527 326.03C336.605 325.99 336.692 325.97 336.78 325.97C336.867 325.976 336.951 326.004 337.025 326.051C337.098 326.099 337.158 326.163 337.2 326.24C341.779 334.855 346.902 343.168 352.54 351.13C353.71 350.75 357.61 349.46 361.22 348.35C365.48 347.05 372.29 341.86 373.53 340.35C373.874 339.893 374.358 339.559 374.908 339.4C375.458 339.242 376.045 339.266 376.58 339.47C377.29 339.76 378.91 340.91 378.42 345.05C377.93 349.19 375.75 351.47 373.64 353.67C372.783 354.513 371.993 355.422 371.28 356.39C370.83 357.03 370.21 357.97 369.47 359.09C365 365.88 360.8 371.99 358.6 372.27L358.44 372.24ZM326.26 336.44C329.18 339.51 332.01 342.44 334.52 345.06C338.43 349.13 341.52 352.34 342.85 353.87C344.18 355.4 345.85 357.49 347.59 359.71C351.27 364.38 356.87 371.44 358.47 371.24C360.4 371 365.96 362.56 368.64 358.5C369.38 357.37 370.01 356.42 370.46 355.78C371.207 354.769 372.029 353.816 372.92 352.93C374.92 350.85 376.98 348.7 377.43 344.93C377.71 342.52 377.25 340.82 376.19 340.38C375.856 340.264 375.493 340.257 375.155 340.362C374.817 340.466 374.521 340.676 374.31 340.96C372.99 342.62 366.02 347.96 361.52 349.34C357.24 350.66 352.52 352.21 352.52 352.23C352.42 352.249 352.317 352.237 352.224 352.196C352.131 352.155 352.053 352.087 352 352C346.406 344.14 341.315 335.934 336.76 327.43C334.133 331.322 330.506 334.434 326.26 336.44Z" fill="#263238"/>
<path d="M197.22 177.93C197.22 177.93 201.61 186.93 202.1 189.93C202.59 192.93 199.17 194.57 195.75 195.3C192.33 196.03 187 194 181.6 200.14C176.2 206.28 163 232.85 161.09 237C159.18 241.15 161.09 244.57 166.46 243.59C171.83 242.61 186.23 223.59 186.23 223.59C186.23 223.59 204.05 245.31 206.23 249.95C208.41 254.59 207.7 262.4 207.23 270.46C206.76 278.52 205.52 290.23 212.84 299.75C220.16 309.27 235.55 311.96 248.24 305.36C260.93 298.76 274.64 276.02 268.53 266.74C262.42 257.46 248.73 252.88 244.58 244.09C240.43 235.3 241.87 230.44 241.87 221.41C241.688 214.482 241.019 207.575 239.87 200.74C239.87 200.74 260.87 195.74 285.2 192.41C293.67 191.25 288.37 181.67 283.49 179.72C277.37 177.27 250.26 180.1 242.87 179.41C232.2 178.41 226.76 180.62 224.32 182.33C221.88 184.04 218.7 186.48 216.02 186.24C213.34 186 210.4 172.81 210.4 172.81C210.4 172.81 203.32 178.66 197.22 177.93Z" fill="#F49D6E"/>
<path d="M233.48 309.45C225.1 309.45 217.16 306.17 212.48 300.04C205.48 290.91 206.16 279.86 206.67 271.8L206.89 268.32C207.35 261.1 207.78 254.32 205.83 250.15C203.88 245.98 188.93 227.63 186.28 224.38C183.9 227.48 171.64 243.17 166.58 244.09C163.91 244.57 161.82 244.04 160.71 242.59C159.6 241.14 159.6 239.05 160.71 236.79C162.42 233.15 175.81 206.04 181.29 199.79C185.45 195.06 189.58 195 192.89 194.95C193.837 194.971 194.785 194.905 195.72 194.75C197.25 194.42 202.2 193.11 201.72 189.95C201.25 187.13 196.92 178.21 196.88 178.12C196.836 178.044 196.813 177.958 196.813 177.87C196.813 177.782 196.836 177.696 196.88 177.62C196.933 177.546 197.004 177.488 197.086 177.451C197.169 177.414 197.26 177.4 197.35 177.41C203.17 178.1 210.08 172.41 210.15 172.41C210.216 172.356 210.295 172.32 210.379 172.306C210.463 172.292 210.55 172.3 210.63 172.33C210.712 172.355 210.786 172.402 210.844 172.465C210.902 172.528 210.942 172.606 210.96 172.69C212.36 179 214.68 185.6 216.13 185.69C218.4 185.89 221.21 183.91 223.47 182.32L224.1 181.87C226.35 180.3 231.79 177.87 242.98 178.87C245.75 179.13 251.52 178.87 257.62 178.62C268.04 178.16 279.85 177.62 283.75 179.21C287.03 180.52 290.65 185.21 290.2 188.85C290.01 190.41 289.01 192.36 285.34 192.85C263.26 195.85 243.7 200.32 240.51 201.06C241.624 207.77 242.269 214.55 242.44 221.35C242.44 223.35 242.37 225.08 242.3 226.77C242.07 232.77 241.91 237.06 245.1 243.82C247.21 248.29 251.87 251.65 256.8 255.21C261.35 258.5 266.05 261.9 269.02 266.41C270.8 269.11 271.08 273.07 269.83 277.86C267.03 288.59 257.48 301.11 248.54 305.75C243.891 308.177 238.724 309.446 233.48 309.45ZM186.23 223.08C186.304 223.078 186.378 223.093 186.446 223.124C186.514 223.155 186.573 223.202 186.62 223.26C187.35 224.15 204.5 245.09 206.7 249.73C208.76 254.08 208.32 261.03 207.86 268.38L207.64 271.86C207.13 279.77 206.44 290.6 213.24 299.44C220.49 308.87 235.77 311.27 248.01 304.91C256.58 300.46 266.1 287.98 268.79 277.66C269.97 273.15 269.73 269.47 268.12 267.01C265.25 262.65 260.62 259.31 256.12 256.07C251.12 252.43 246.33 249 244.12 244.29C240.82 237.29 241 232.66 241.23 226.78C241.29 225.1 241.36 223.36 241.36 221.4C241.175 214.502 240.507 207.625 239.36 200.82C239.339 200.695 239.366 200.566 239.437 200.46C239.508 200.354 239.616 200.279 239.74 200.25C239.95 200.2 261.04 195.2 285.12 191.9C287.57 191.57 288.91 190.51 289.12 188.76C289.51 185.6 286.18 181.33 283.29 180.17C279.59 178.69 267.38 179.22 257.57 179.65C251.17 179.92 245.64 180.16 242.8 179.9C231.92 178.9 226.72 181.23 224.58 182.73L223.96 183.17C221.57 184.86 218.6 186.97 215.96 186.72C213.32 186.47 210.86 177.03 210.08 173.72C208.29 175.07 203.08 178.72 198.03 178.53C199.12 180.8 202.17 187.36 202.58 189.85C203.04 192.56 200.52 194.79 195.85 195.79C194.859 195.958 193.855 196.031 192.85 196.01C189.73 196.06 185.85 196.11 181.98 200.51C176.57 206.66 163.26 233.63 161.55 237.26C160.65 239.17 160.63 240.9 161.48 242.02C162.33 243.14 164.1 243.56 166.38 243.14C170.48 242.4 180.9 229.85 185.84 223.31C185.887 223.252 185.946 223.204 186.014 223.171C186.081 223.139 186.155 223.121 186.23 223.12V223.08Z" fill="#263238"/>
<path d="M254.36 179.28L252.36 179.36C252.088 185.589 253.605 191.765 256.73 197.16L258.83 196.76C255.644 191.504 254.089 185.421 254.36 179.28Z" fill="#263238"/>
<path d="M243.05 240.28C242.83 239.63 242.64 238.99 242.48 238.37C227.35 241.73 214.55 251.53 207.72 257.66C207.72 258.52 207.72 259.42 207.72 260.34C214 254.52 227.25 243.74 243.05 240.28Z" fill="#263238"/>
<path d="M204.39 246.93C204.83 247.58 205.22 248.16 205.53 248.67C210.04 244.22 221.53 234.67 241.66 228.9C241.66 228.21 241.71 227.49 241.74 226.76C221 232.54 209.29 242.11 204.39 246.93Z" fill="#263238"/>
<path d="M189.52 213.6C193.11 213.21 210.23 210.6 235.11 194.6C236.28 196.905 237.578 199.142 239 201.3C239.093 201.434 239.217 201.543 239.362 201.618C239.506 201.693 239.667 201.731 239.83 201.73H239.99L239.83 200.73L240.83 200.51C240.802 200.388 240.751 200.273 240.68 200.17C240.6 200.05 233.02 188.86 232.26 179.53C231.55 179.64 230.89 179.76 230.26 179.9C230.446 181.771 230.811 183.619 231.35 185.42C218.888 194.585 204.302 200.435 188.96 202.42C188.553 200.295 187.968 198.207 187.21 196.18C186.569 196.402 185.947 196.676 185.35 197C185.989 198.753 186.493 200.551 186.86 202.38C185.68 201.015 184.293 199.845 182.75 198.91C182.332 199.285 181.938 199.686 181.57 200.11L181.33 200.39C184.11 202.05 186.8 204.54 187.58 208.17C187.666 210.132 187.606 212.097 187.4 214.05C185.392 210.091 181.919 207.07 177.72 205.63C177.38 206.18 177.03 206.76 176.67 207.36C179.093 208.074 181.288 209.405 183.041 211.223C184.794 213.041 186.045 215.283 186.67 217.73C186.685 217.809 186.716 217.883 186.76 217.95C186.53 219.03 186.24 220.12 185.9 221.24C182.934 217.017 178.516 214.033 173.49 212.86L172.49 214.67C175.113 215.178 177.596 216.244 179.77 217.797C181.945 219.35 183.759 221.353 185.09 223.67C184.8 224.49 184.53 225.28 184.26 226.06C185.45 224.55 186.18 223.59 186.18 223.59L186.92 224.49L187.12 223.93C188.365 220.605 189.171 217.133 189.52 213.6ZM232 187.42C232.64 189.234 233.375 191.013 234.2 192.75C210.54 208.05 193.68 211.04 189.63 211.56C189.63 210.61 189.63 209.69 189.63 208.8C189.656 208.671 189.656 208.539 189.63 208.41V208.25C189.57 206.9 189.45 205.63 189.28 204.43C204.713 202.4 219.396 196.554 232 187.42Z" fill="#263238"/>
<path d="M248.22 249.05C247.693 248.51 247.193 247.96 246.72 247.4C229.32 252.4 215.58 262.25 207.29 269.49L207.23 270.49C207.19 271.09 207.15 271.71 207.11 272.35C215.16 265 229.6 254.1 248.22 249.05Z" fill="#263238"/>
<path d="M241.83 219.29C241.83 218.63 241.83 217.97 241.75 217.29C216.09 218.65 203.43 231.79 198.43 238.88L199.7 240.53C204.15 234 216.25 220.66 241.83 219.29Z" fill="#263238"/>
<path d="M267.7 178.76L265.63 178.83C264.837 184.344 265.471 189.97 267.47 195.17L269.47 194.82C267.481 189.715 266.871 184.176 267.7 178.76Z" fill="#263238"/>
<path d="M240.25 179.22C241.206 186.213 243.386 192.983 246.69 199.22L248.75 198.78C245.476 192.741 243.299 186.169 242.32 179.37C241.61 179.3 240.92 179.25 240.25 179.22Z" fill="#263238"/>
<path d="M241 208.4C240.91 207.71 240.83 207.04 240.75 206.4C211.68 209.9 197.1 222.23 190.95 229.34C191.38 229.87 191.81 230.42 192.27 230.98C198 224.27 212.36 211.89 241 208.4Z" fill="#263238"/>
<path d="M248.24 305.35C258.74 299.9 269.93 283.35 270.02 272.59C270.009 270.702 269.483 268.852 268.5 267.24C267.68 265.97 266.77 264.67 265.81 263.35C262.48 259.83 258.15 256.95 254.19 254.03C232.13 262.34 214.46 279.03 207.24 285.56C207.809 290.702 209.742 295.597 212.84 299.74C220.17 309.26 235.55 312 248.24 305.35Z" fill="#263238"/>
<path d="M233.48 309.45C225.1 309.45 217.16 306.17 212.48 300.04C209.314 295.839 207.341 290.86 206.77 285.63C206.759 285.548 206.769 285.465 206.799 285.388C206.828 285.311 206.877 285.243 206.94 285.19L208.29 283.97C216.37 276.65 233.17 261.43 254.05 253.57C254.127 253.538 254.211 253.526 254.293 253.536C254.376 253.547 254.454 253.579 254.52 253.63C255.25 254.17 255.99 254.7 256.74 255.24C260.124 257.537 263.293 260.134 266.21 263C267.31 264.52 268.21 265.8 268.95 267C269.984 268.69 270.537 270.629 270.55 272.61C270.46 283.46 259.33 300.22 248.55 305.84C243.89 308.237 238.72 309.476 233.48 309.45ZM207.77 285.75C208.344 290.719 210.232 295.444 213.24 299.44C220.49 308.87 235.77 311.27 248.01 304.91C258.57 299.42 269.43 283.11 269.52 272.59C269.512 270.797 269.014 269.041 268.08 267.51C267.33 266.36 266.46 265.09 265.41 263.64C262.547 260.837 259.438 258.297 256.12 256.05L254.12 254.6C233.55 262.42 216.94 277.46 208.94 284.71L207.77 285.75Z" fill="#263238"/>
<path d="M182.46 157.74C182.03 157.759 181.605 157.843 181.2 157.99C177.89 159.15 176.59 163.99 178.29 168.84C179.99 173.69 184.06 176.65 187.36 175.48C188.052 175.234 188.674 174.822 189.17 174.28L182.46 157.74Z" fill="white"/>
<path d="M185.86 176.24C184.432 176.196 183.056 175.698 181.93 174.82C180.046 173.304 178.622 171.293 177.818 169.012C177.014 166.732 176.863 164.272 177.38 161.91C177.574 160.931 178.01 160.016 178.647 159.247C179.284 158.479 180.103 157.882 181.03 157.51C181.485 157.354 181.959 157.263 182.44 157.24C182.542 157.236 182.643 157.264 182.728 157.32C182.814 157.375 182.881 157.456 182.92 157.55L189.64 174.09C189.674 174.179 189.683 174.276 189.666 174.369C189.648 174.463 189.604 174.55 189.54 174.62C188.988 175.218 188.303 175.678 187.54 175.96C186.999 176.144 186.431 176.238 185.86 176.24ZM182.14 158.24C181.874 158.277 181.613 158.341 181.36 158.43C180.59 158.749 179.913 159.256 179.389 159.904C178.865 160.552 178.511 161.321 178.36 162.14C177.889 164.308 178.029 166.565 178.763 168.658C179.497 170.752 180.798 172.601 182.52 174C183.157 174.54 183.918 174.914 184.734 175.088C185.551 175.263 186.398 175.232 187.2 175C187.715 174.818 188.185 174.528 188.58 174.15L182.14 158.24Z" fill="#263238"/>
<path d="M182.46 157.74C182.03 157.759 181.605 157.843 181.2 157.99C180.825 158.123 180.468 158.305 180.14 158.53L187.14 175.53C187.208 175.516 187.275 175.496 187.34 175.47C188.032 175.224 188.654 174.812 189.15 174.27L182.46 157.74Z" fill="white"/>
<path d="M187.22 176C187.114 176.007 187.009 175.983 186.917 175.931C186.825 175.88 186.749 175.803 186.7 175.71L179.7 158.71C179.657 158.604 179.651 158.487 179.684 158.378C179.717 158.269 179.786 158.175 179.88 158.11C180.244 157.86 180.637 157.655 181.05 157.5C181.505 157.344 181.979 157.253 182.46 157.23C182.562 157.226 182.663 157.254 182.748 157.31C182.834 157.365 182.901 157.446 182.94 157.54L189.66 174.08C189.694 174.169 189.703 174.266 189.686 174.359C189.668 174.453 189.624 174.54 189.56 174.61C189.008 175.208 188.323 175.668 187.56 175.95H187.39L187.22 176ZM180.77 158.71L187.44 174.89C187.86 174.707 188.246 174.453 188.58 174.14L182.14 158.25C181.874 158.287 181.613 158.351 181.36 158.44C181.154 158.518 180.957 158.615 180.77 158.73V158.71Z" fill="#263238"/>
<path d="M212.59 147.69C212.939 147.435 213.323 147.233 213.73 147.09C217.03 145.93 221.09 148.9 222.8 153.73C224.51 158.56 223.21 163.42 219.91 164.59C219.212 164.826 218.469 164.895 217.74 164.79L212.59 147.69Z" fill="white"/>
<path d="M218.44 165.33C218.186 165.333 217.932 165.317 217.68 165.28C217.584 165.268 217.493 165.228 217.419 165.166C217.345 165.104 217.29 165.022 217.26 164.93L212.11 147.84C212.081 147.741 212.082 147.635 212.114 147.537C212.147 147.439 212.208 147.353 212.29 147.29C212.679 147.007 213.107 146.781 213.56 146.62C217.12 145.37 221.48 148.48 223.27 153.56C224.121 155.83 224.277 158.301 223.72 160.66C223.526 161.639 223.09 162.554 222.453 163.323C221.815 164.091 220.996 164.688 220.07 165.06C219.546 165.241 218.995 165.332 218.44 165.33ZM218.13 164.33C218.675 164.371 219.222 164.303 219.74 164.13C220.511 163.81 221.189 163.301 221.713 162.652C222.237 162.002 222.59 161.231 222.74 160.41C223.247 158.246 223.101 155.981 222.32 153.9C220.71 149.34 216.92 146.5 213.88 147.57C213.629 147.662 213.388 147.78 213.16 147.92L218.13 164.33Z" fill="#263238"/>
<path d="M218.44 165.33C218.186 165.333 217.932 165.317 217.68 165.28C217.584 165.268 217.493 165.228 217.419 165.166C217.345 165.104 217.29 165.022 217.26 164.93L212.11 147.84C212.081 147.741 212.082 147.635 212.114 147.537C212.147 147.439 212.208 147.353 212.29 147.29C212.679 147.007 213.107 146.781 213.56 146.62C213.976 146.475 214.41 146.388 214.85 146.36C214.965 146.351 215.079 146.382 215.174 146.447C215.269 146.513 215.338 146.609 215.37 146.72L220.58 164.36C220.616 164.478 220.606 164.606 220.553 164.717C220.499 164.828 220.405 164.915 220.29 164.96L220.07 165.06C219.546 165.241 218.995 165.332 218.44 165.33ZM218.13 164.33C218.587 164.368 219.048 164.324 219.49 164.2L214.49 147.41C214.006 147.484 213.543 147.658 213.13 147.92L218.13 164.33Z" fill="#263238"/>
<path d="M221.21 184.44C219.48 185.52 217.66 186.38 216.02 186.23C213.33 185.98 210.4 172.8 210.4 172.8C210.4 172.8 203.32 178.66 197.22 177.93C197.22 177.93 201.61 186.93 202.1 189.93C202.5 192.3 200.33 193.87 197.68 194.77C198.95 198.51 203.09 207.07 213.87 204.44C223.3 202.1 222.57 191.06 221.21 184.44Z" fill="#D9D9D9"/>
<path d="M210 205.4C201.79 205.4 198.39 198.29 197.24 194.89C197.213 194.83 197.199 194.766 197.199 194.7C197.199 194.635 197.213 194.57 197.24 194.51C197.268 194.451 197.309 194.398 197.359 194.355C197.409 194.312 197.467 194.28 197.53 194.26C199.23 193.68 202.02 192.36 201.62 189.97C201.15 187.15 196.82 178.23 196.78 178.14C196.736 178.064 196.713 177.978 196.713 177.89C196.713 177.802 196.736 177.716 196.78 177.64C196.833 177.567 196.904 177.508 196.986 177.471C197.069 177.434 197.16 177.42 197.25 177.43C203.07 178.12 209.98 172.43 210.05 172.43C210.116 172.376 210.195 172.34 210.279 172.326C210.363 172.312 210.45 172.32 210.53 172.35C210.612 172.375 210.686 172.422 210.744 172.485C210.802 172.548 210.842 172.626 210.86 172.71C212.26 179.02 214.58 185.62 216.03 185.71C217.3 185.82 218.86 185.28 220.92 184C220.987 183.956 221.065 183.929 221.145 183.922C221.225 183.915 221.306 183.928 221.381 183.959C221.455 183.991 221.52 184.04 221.57 184.103C221.621 184.166 221.655 184.241 221.67 184.32C223.03 190.96 223.85 202.45 213.96 204.87C212.665 205.2 211.336 205.378 210 205.4ZM198.32 195C199.73 198.84 203.82 206.31 213.75 203.88C222.5 201.75 222.06 191.57 220.86 185.21C219.413 186.178 217.711 186.693 215.97 186.69C213.32 186.45 210.87 177 210.09 173.69C208.3 175.04 203.09 178.69 198.04 178.5C199.13 180.77 202.18 187.33 202.59 189.82C203 192 201.45 193.85 198.32 195Z" fill="#263238"/>
<path d="M212.52 180.38C211.94 178.67 211.43 176.89 211.06 175.48C210.75 174.67 210.46 173.82 210.18 172.97C209 173.9 202.72 178.59 197.18 177.97C197.18 177.97 198.66 180.97 200 184.15C202.36 184.85 205.68 185.39 208.29 184.04C209.934 183.12 211.373 181.874 212.52 180.38Z" fill="#263238"/>
<path d="M204.53 185.33C202.959 185.307 201.4 185.057 199.9 184.59C199.829 184.57 199.764 184.534 199.709 184.486C199.653 184.437 199.609 184.377 199.58 184.31C198.26 181.23 196.78 178.17 196.77 178.14C196.726 178.064 196.703 177.978 196.703 177.89C196.703 177.802 196.726 177.716 196.77 177.64C196.823 177.567 196.894 177.508 196.976 177.471C197.059 177.434 197.15 177.42 197.24 177.43C202.54 178.07 208.66 173.5 209.84 172.58C209.903 172.531 209.976 172.497 210.054 172.482C210.132 172.466 210.213 172.469 210.29 172.49C210.368 172.514 210.438 172.557 210.496 172.614C210.553 172.672 210.596 172.742 210.62 172.82C210.91 173.72 211.2 174.56 211.49 175.3C211.97 177.13 212.49 178.81 212.95 180.21C212.979 180.29 212.988 180.376 212.974 180.461C212.96 180.545 212.924 180.624 212.87 180.69C211.69 182.223 210.21 183.499 208.52 184.44C207.28 185.05 205.912 185.355 204.53 185.33ZM200.41 183.7C202.65 184.34 205.72 184.79 208.1 183.56C209.59 182.727 210.902 181.61 211.96 180.27C211.38 178.55 210.89 176.8 210.58 175.61C210.37 175.07 210.15 174.46 209.93 173.79C208.02 175.2 202.93 178.63 198.04 178.49C198.55 179.56 199.51 181.61 200.41 183.7Z" fill="#263238"/>
<path d="M183.06 154.49C183.06 154.49 186.48 169.14 188.92 173.04C191.36 176.94 200.15 181.59 204.3 182.04C208.45 182.49 211.38 177.4 213.82 173.25C216.26 169.1 216.99 165.68 216.02 160.31C214.596 153.877 212.379 147.646 209.42 141.76C207.84 138.76 200.42 135.65 193.56 137.36C186.7 139.07 181.84 146.68 183.06 154.49Z" fill="#D9D9D9"/>
<path d="M204.85 182.61C204.647 182.625 204.443 182.625 204.24 182.61C199.75 182.08 190.98 177.32 188.5 173.35C186.02 169.38 182.71 155.25 182.57 154.64C181.33 146.71 186.2 138.8 193.44 136.99C200.68 135.18 208.23 138.52 209.87 141.63C212.847 147.565 215.077 153.846 216.51 160.33C217.51 165.59 216.85 169.19 214.25 173.61L214.11 173.84C211.79 177.73 208.92 182.61 204.85 182.61ZM183.55 154.4C183.69 154.98 187.01 169.05 189.34 172.78C191.67 176.51 200.12 181.08 204.34 181.58C208.08 182.03 210.94 177.17 213.23 173.26L213.37 173.03C215.86 168.79 216.42 165.49 215.5 160.44C214.108 154.047 211.925 147.853 209 142C207.54 139.23 200.32 136.2 193.7 137.86C187.08 139.52 182.4 147 183.55 154.4Z" fill="#263238"/>
<path d="M198.44 163.29H198.35C198.286 163.279 198.225 163.256 198.17 163.221C198.116 163.187 198.068 163.141 198.031 163.088C197.994 163.035 197.968 162.976 197.954 162.912C197.94 162.849 197.938 162.784 197.95 162.72C198.024 162.311 198.183 161.923 198.415 161.578C198.647 161.234 198.949 160.942 199.3 160.72C199.866 160.431 200.488 160.268 201.124 160.242C201.759 160.217 202.392 160.328 202.98 160.57C203.113 160.61 203.224 160.701 203.29 160.823C203.355 160.944 203.37 161.087 203.33 161.22C203.29 161.353 203.199 161.464 203.077 161.53C202.956 161.595 202.813 161.61 202.68 161.57C202.232 161.369 201.746 161.266 201.255 161.266C200.764 161.266 200.278 161.369 199.83 161.57C199.375 161.863 199.052 162.322 198.93 162.85C198.917 162.971 198.86 163.083 198.77 163.165C198.679 163.246 198.562 163.291 198.44 163.29Z" fill="#263238"/>
<path d="M199.93 169.1C198.478 169.093 197.048 168.751 195.75 168.1C195.693 168.067 195.643 168.023 195.603 167.971C195.562 167.919 195.533 167.859 195.516 167.796C195.498 167.732 195.494 167.666 195.502 167.601C195.511 167.535 195.532 167.472 195.565 167.415C195.598 167.358 195.642 167.308 195.694 167.268C195.746 167.227 195.806 167.198 195.869 167.181C195.933 167.164 195.999 167.159 196.065 167.168C196.13 167.176 196.193 167.197 196.25 167.23C196.51 167.38 202.73 170.78 207.25 163.23C207.285 163.174 207.33 163.126 207.384 163.087C207.437 163.049 207.498 163.022 207.562 163.007C207.626 162.992 207.692 162.99 207.757 163.001C207.822 163.012 207.884 163.035 207.94 163.07C207.996 163.104 208.044 163.148 208.082 163.201C208.12 163.254 208.148 163.313 208.162 163.377C208.177 163.44 208.179 163.505 208.169 163.57C208.158 163.634 208.135 163.695 208.1 163.75C205.56 168.05 202.41 169.1 199.93 169.1Z" fill="#263238"/>
<path d="M191.08 162.86C190.42 162.871 189.767 162.73 189.17 162.45C188.935 162.317 188.763 162.097 188.69 161.837C188.618 161.578 188.652 161.3 188.785 161.065C188.917 160.83 189.138 160.658 189.398 160.586C189.657 160.514 189.935 160.547 190.17 160.68C190.28 160.74 192.3 161.68 195.07 158.68C195.251 158.485 195.503 158.37 195.769 158.361C196.036 158.352 196.295 158.448 196.49 158.63C196.685 158.812 196.8 159.063 196.809 159.33C196.818 159.596 196.721 159.855 196.54 160.05C194.37 162.33 192.43 162.86 191.08 162.86Z" fill="#263238"/>
<path d="M205.72 157.82C204.8 157.82 203.885 157.675 203.01 157.39C202.758 157.308 202.549 157.129 202.429 156.892C202.309 156.656 202.288 156.382 202.37 156.13C202.411 156.004 202.476 155.888 202.562 155.787C202.648 155.687 202.753 155.604 202.871 155.545C202.989 155.485 203.118 155.45 203.25 155.44C203.382 155.431 203.515 155.448 203.64 155.49C203.81 155.55 207.87 156.85 208.98 153.9C209.02 153.77 209.087 153.65 209.175 153.546C209.264 153.443 209.373 153.358 209.495 153.299C209.617 153.239 209.75 153.204 209.886 153.198C210.022 153.191 210.158 153.212 210.286 153.26C210.413 153.308 210.529 153.381 210.628 153.475C210.726 153.569 210.804 153.683 210.857 153.808C210.909 153.934 210.936 154.069 210.935 154.205C210.934 154.341 210.905 154.475 210.85 154.6C210.457 155.618 209.744 156.482 208.82 157.062C207.895 157.643 206.808 157.908 205.72 157.82Z" fill="#263238"/>
<path d="M187.94 157.43C187.814 157.43 187.692 157.383 187.6 157.298C187.507 157.213 187.45 157.096 187.44 156.97C187.382 156.1 187.497 155.227 187.778 154.401C188.06 153.575 188.502 152.814 189.08 152.16C189.732 151.6 190.503 151.195 191.335 150.977C192.166 150.759 193.037 150.732 193.88 150.9C194.012 150.918 194.132 150.986 194.214 151.091C194.296 151.195 194.334 151.328 194.32 151.46C194.313 151.526 194.292 151.59 194.26 151.648C194.228 151.705 194.184 151.756 194.132 151.797C194.08 151.838 194.02 151.868 193.956 151.886C193.892 151.904 193.826 151.908 193.76 151.9C193.061 151.753 192.338 151.766 191.645 151.939C190.952 152.112 190.307 152.441 189.76 152.9C188.813 154.01 188.332 155.444 188.42 156.9C188.425 156.966 188.418 157.032 188.398 157.095C188.377 157.157 188.345 157.216 188.302 157.266C188.26 157.316 188.207 157.357 188.148 157.387C188.09 157.417 188.026 157.435 187.96 157.44L187.94 157.43Z" fill="#263238"/>
<path d="M200.64 149.62C200.514 149.623 200.392 149.576 200.3 149.49C200.253 149.444 200.216 149.388 200.191 149.327C200.165 149.266 200.152 149.201 200.152 149.135C200.152 149.069 200.165 149.004 200.191 148.943C200.216 148.882 200.253 148.826 200.3 148.78C200.3 148.78 203.56 145.34 208.25 148.21C208.306 148.243 208.356 148.287 208.395 148.339C208.434 148.391 208.462 148.451 208.478 148.514C208.494 148.578 208.497 148.643 208.487 148.708C208.477 148.773 208.454 148.834 208.42 148.89C208.386 148.947 208.341 148.996 208.288 149.035C208.235 149.075 208.175 149.103 208.11 149.119C208.046 149.135 207.98 149.138 207.914 149.128C207.849 149.117 207.786 149.094 207.73 149.06C203.73 146.61 201.06 149.43 201.03 149.46C200.982 149.516 200.922 149.559 200.854 149.587C200.787 149.615 200.713 149.626 200.64 149.62Z" fill="#263238"/>
<path d="M174.52 161.33C174.52 161.33 173.78 168.89 174.52 170.85C175.26 172.81 181.84 180.12 183.06 181.85C184.28 183.58 184.52 183.8 182.06 188.44C179.6 193.08 159.36 223.11 158.63 230.68C157.9 238.25 158.38 245.08 166.44 243.61C174.5 242.14 179.13 221.89 182.55 210.41C185.97 198.93 189.63 184.05 189.63 180.88C189.63 177.71 179.37 169.79 178.27 168.88C177.17 167.97 176.69 163.81 176.69 161.61C176.69 159.41 175.49 159.37 174.52 161.33Z" fill="#D9D9D9"/>
<path d="M164.44 244.29C162.913 244.367 161.416 243.851 160.26 242.85C157.59 240.4 157.7 235.29 158.15 230.61C158.71 224.86 170.15 206.73 176.92 195.89C179.21 192.24 181.03 189.36 181.64 188.19C183.91 183.88 183.77 183.69 182.7 182.19C182.27 181.59 181.28 180.42 180.15 179.07C177.66 176.07 174.57 172.43 174.05 171.07C173.3 169.07 173.94 162.07 174.05 161.33C174.037 161.271 174.037 161.209 174.05 161.15C174.67 159.91 175.44 159.3 176.16 159.47C176.54 159.56 177.16 159.96 177.16 161.62C177.16 164.26 177.78 167.84 178.57 168.51L179.19 169.02C186.64 175.02 190.1 178.81 190.1 180.91C190.1 184.25 186.35 199.34 183 210.59C182.57 212.04 182.11 213.64 181.64 215.32C178.35 226.92 173.84 242.8 166.5 244.13C165.819 244.245 165.13 244.299 164.44 244.29ZM175 161.47C174.8 163.61 174.43 169.18 175 170.67C175.47 171.9 178.76 175.82 180.93 178.41C182.13 179.84 183.08 180.97 183.49 181.54C184.9 183.54 184.94 184.1 182.55 188.66C181.91 189.86 180.09 192.76 177.78 196.43C171.02 207.18 159.7 225.19 159.17 230.7C158.76 234.88 158.6 239.95 160.95 242.12C162.16 243.22 163.95 243.55 166.39 243.12C173.12 241.9 177.53 226.36 180.75 215.02C181.22 213.33 181.68 211.73 182.11 210.27C185.74 198.09 189.17 183.81 189.17 180.88C189.17 179.69 187.34 176.8 178.64 169.77L177.99 169.25C176.66 168.12 176.23 163.6 176.23 161.59C176.23 160.7 176.02 160.43 175.97 160.41C175.92 160.39 175.49 160.53 175 161.47Z" fill="#263238"/>
<path d="M182.57 210.39C182.91 209.26 183.25 208.08 183.57 206.89L173.16 202.81C166.69 213.24 159.07 226.07 158.63 230.66C157.9 238.22 158.38 245.06 166.44 243.59C174.5 242.12 179.15 221.87 182.57 210.39Z" fill="#F49D6E"/>
<path d="M164.44 244.29C162.913 244.367 161.416 243.851 160.26 242.85C157.59 240.4 157.7 235.29 158.15 230.61C158.6 225.93 166.71 212.28 172.76 202.54C172.82 202.441 172.913 202.367 173.023 202.33C173.133 202.294 173.252 202.297 173.36 202.34L183.78 206.43C183.895 206.475 183.989 206.562 184.043 206.673C184.096 206.784 184.106 206.912 184.07 207.03C183.73 208.22 183.39 209.4 183.07 210.54C182.64 211.99 182.18 213.59 181.71 215.27C178.42 226.87 173.91 242.75 166.57 244.08C165.868 244.216 165.155 244.286 164.44 244.29ZM173.39 203.42C167.39 213.05 159.59 226.15 159.15 230.7C158.74 234.88 158.58 239.95 160.93 242.12C162.14 243.22 163.93 243.55 166.37 243.12C173.1 241.9 177.51 226.36 180.73 215.02C181.2 213.33 181.66 211.73 182.09 210.27C182.39 209.27 182.69 208.25 182.99 207.21L173.39 203.42Z" fill="#263238"/>
<path d="M168.51 210.47L168.39 210.67L168.09 211.17C167.87 211.54 167.65 211.91 167.44 212.28C171.989 213.389 176.453 214.819 180.8 216.56L181.35 214.63C177.168 212.956 172.879 211.567 168.51 210.47Z" fill="#263238"/>
<path d="M172 239.23C172.43 238.61 172.85 237.93 173.26 237.23C168.205 237.411 163.162 236.627 158.4 234.92C158.4 235.68 158.43 236.41 158.49 237.11C162.844 238.561 167.41 239.278 172 239.23Z" fill="#263238"/>
<path d="M162.2 221.68C162.11 221.85 162.02 222.02 161.94 222.19C161.86 222.36 161.75 222.56 161.66 222.74L161.23 223.61C166.789 224.157 172.216 225.641 177.28 228C177.5 227.37 177.72 226.73 177.93 226.09C172.96 223.779 167.647 222.29 162.2 221.68Z" fill="#263238"/>
<path d="M219.89 144.12C219.89 144.12 226.1 148.5 227.11 150.33C228.12 152.16 229.37 161.93 229.87 163.97C230.37 166.01 230.4 166.35 235.5 167.52C240.6 168.69 276.59 172.9 282.81 177.27C289.03 181.64 293.89 186.48 287.53 191.63C281.17 196.78 262.78 187.1 251.85 182.21C240.92 177.32 227.24 170.4 224.85 168.33C222.46 166.26 223.14 153.33 223.15 151.89C223.16 150.45 220.33 147.38 218.66 145.95C216.99 144.52 217.77 143.59 219.89 144.12Z" fill="#D9D9D9"/>
<path d="M282.45 193.58C275.27 193.58 264.51 188.58 256.13 184.72C254.54 183.99 253.03 183.29 251.65 182.67C240.93 177.88 227.04 170.89 224.51 168.67C222.92 167.3 222.31 162.21 222.6 152.67C222.6 152.29 222.6 152.02 222.6 151.87C222.6 150.87 220.28 148.03 218.28 146.31C217.02 145.23 217.14 144.47 217.33 144.12C217.67 143.46 218.63 143.28 219.98 143.62C220.039 143.632 220.094 143.66 220.14 143.7C220.79 144.15 226.48 148.19 227.51 150.07C228.23 151.37 229.01 156.07 229.63 159.93C229.92 161.67 230.17 163.18 230.32 163.83C230.78 165.7 230.84 165.93 235.59 167.02C236.87 167.31 240.24 167.82 244.51 168.46C257.16 170.35 278.34 173.52 283.07 176.85C286.91 179.55 290.86 182.85 290.98 186.42C291.05 188.37 289.98 190.24 287.81 192C286.258 193.127 284.365 193.685 282.45 193.58ZM218.81 144.47C218.611 144.446 218.409 144.492 218.24 144.6C218.24 144.65 218.24 144.99 218.96 145.6C220.49 146.91 223.64 150.18 223.63 151.92C223.63 152.08 223.63 152.36 223.63 152.75C223.29 163.94 224.29 167.21 225.19 167.98C227.41 169.89 240.48 176.6 252.08 181.79C253.47 182.41 254.98 183.11 256.57 183.84C267.28 188.84 281.93 195.58 287.25 191.27C289.18 189.7 290.1 188.14 290.04 186.51C289.93 183.31 285.98 180.13 282.55 177.71C278.02 174.52 256.99 171.38 244.42 169.49C240.13 168.85 236.75 168.35 235.42 168.04C230.42 166.89 229.99 166.49 229.42 164.19C229.24 163.43 229 161.98 228.7 160.19C228.15 156.85 227.32 151.81 226.7 150.65C225.93 149.25 221.47 145.91 219.7 144.65C219.412 144.552 219.113 144.492 218.81 144.47Z" fill="#263238"/>
<path d="M251.85 182.21L248.53 180.71L252.22 170.15C264.35 172.04 279.04 174.62 282.81 177.27C289.03 181.65 293.89 186.48 287.53 191.63C281.17 196.78 262.78 187.1 251.85 182.21Z" fill="#F49D6E"/>
<path d="M282.45 193.58C275.27 193.58 264.51 188.58 256.13 184.72C254.54 183.99 253.03 183.29 251.65 182.67L248.32 181.16C248.206 181.109 248.115 181.017 248.067 180.902C248.018 180.786 248.016 180.657 248.06 180.54L251.74 170C251.778 169.889 251.854 169.796 251.955 169.735C252.055 169.675 252.174 169.652 252.29 169.67C263.62 171.44 279.14 174.1 283.1 176.89C287.06 179.68 290.89 182.89 291.01 186.46C291.08 188.41 290.01 190.28 287.84 192.04C286.275 193.16 284.37 193.704 282.45 193.58ZM252.05 181.76C253.44 182.38 254.96 183.08 256.55 183.81C267.25 188.81 281.9 195.55 287.22 191.24C289.15 189.67 290.07 188.11 290.01 186.48C289.9 183.28 285.95 180.1 282.52 177.68C278.78 175.05 263.74 172.45 252.52 170.68L249.12 180.41L252.02 181.73L252.05 181.76Z" fill="#263238"/>
<path d="M268.57 189.63C269.2 189.88 269.82 190.11 270.44 190.34L276.53 174.84L275.23 174.49L274.95 174.42L274.58 174.33L268.57 189.63Z" fill="#263238"/>
<path d="M264.8 172.26L264.27 172.17L262.89 171.92L257.63 184.92L259.04 185.57L259.45 185.75L264.9 172.33L264.8 172.26Z" fill="#263238"/>
<path d="M285.94 179.65C284.59 182.65 282.11 188.23 279.8 192.9C280.509 193.005 281.223 193.069 281.94 193.09C284.02 188.83 286.18 184.09 287.5 181.09C287 180.58 286.49 180.11 285.94 179.65Z" fill="#263238"/>
<path d="M353 355.06C354.388 355.835 355.627 356.851 356.66 358.06C356.66 358.06 355.76 360.49 350.37 364.67C353.95 368.22 357.15 371.9 358.51 371.73C361.18 371.4 368.51 359.4 370.85 356.07C373.19 352.74 377.24 350.62 377.9 344.95C378.56 339.28 375.24 338.95 373.9 340.62C372.56 342.29 364.41 347.75 360.08 349.09C355.75 350.43 352.33 351.72 352.33 351.72C352.33 351.72 351 354.06 353 355.06Z" fill="white"/>
<path d="M358.44 372.24C357.18 372.24 355.3 370.38 352.17 367.19C351.49 366.48 350.77 365.75 350.04 365.02C349.99 364.971 349.95 364.912 349.924 364.846C349.898 364.781 349.887 364.71 349.89 364.64C349.894 364.569 349.914 364.499 349.946 364.435C349.979 364.372 350.024 364.315 350.08 364.27C354.27 361.03 355.7 358.85 356.08 358.14C355.133 357.084 354.018 356.191 352.78 355.5C352.479 355.365 352.211 355.167 351.992 354.921C351.773 354.674 351.609 354.384 351.51 354.07C351.318 353.187 351.461 352.264 351.91 351.48C351.962 351.377 352.051 351.299 352.16 351.26C352.16 351.26 355.64 349.93 359.94 348.61C364.24 347.29 372.25 341.89 373.52 340.31C373.864 339.852 374.348 339.519 374.898 339.36C375.448 339.202 376.035 339.226 376.57 339.43C377.28 339.72 378.9 340.87 378.41 345.01C377.92 349.15 375.74 351.43 373.63 353.63C372.773 354.473 371.983 355.382 371.27 356.35C370.82 356.99 370.2 357.93 369.46 359.05C364.99 365.84 360.79 371.95 358.59 372.23L358.44 372.24ZM351.14 364.71C351.74 365.31 352.32 365.91 352.89 366.49C355.11 368.76 357.63 371.33 358.47 371.24C360.4 371 365.96 362.56 368.64 358.5C369.38 357.37 370.01 356.42 370.46 355.78C371.206 354.769 372.029 353.816 372.92 352.93C374.92 350.85 376.98 348.7 377.43 344.93C377.71 342.52 377.25 340.82 376.19 340.38C375.856 340.264 375.493 340.257 375.155 340.362C374.816 340.466 374.52 340.676 374.31 340.96C372.95 342.66 364.78 348.2 360.24 349.59C356.53 350.74 353.47 351.87 352.71 352.15C352.45 352.662 352.369 353.247 352.48 353.81C352.541 353.994 352.64 354.164 352.771 354.307C352.902 354.45 353.062 354.563 353.24 354.64C354.696 355.442 355.994 356.503 357.07 357.77C357.125 357.838 357.161 357.918 357.175 358.004C357.189 358.09 357.18 358.178 357.15 358.26C357.11 358.33 356.19 360.71 351.14 364.71Z" fill="#263238"/>
<path d="M377.05 340.35C376.19 347.2 374.05 349.42 366.05 358.02C359.82 364.72 357.42 368.87 356.5 370.92C357.071 371.383 357.768 371.665 358.5 371.73C361.17 371.4 368.5 359.4 370.84 356.07C373.18 352.74 377.23 350.62 377.89 344.95C378.21 342.52 377.76 341.08 377.05 340.35Z" fill="white"/>
<path d="M358.42 372.24C357.615 372.146 356.851 371.835 356.21 371.34C356.112 371.272 356.041 371.172 356.008 371.057C355.976 370.942 355.983 370.82 356.03 370.71C357.09 368.36 359.62 364.19 365.67 357.71L366.13 357.21C373.69 349.07 375.73 346.88 376.55 340.32C376.562 340.227 376.601 340.139 376.661 340.066C376.721 339.994 376.8 339.939 376.89 339.91C376.977 339.876 377.073 339.869 377.164 339.89C377.255 339.912 377.337 339.961 377.4 340.03C378.06 340.7 378.76 342.12 378.4 345.03C377.91 349.17 375.73 351.45 373.62 353.65C372.763 354.493 371.973 355.402 371.26 356.37C370.81 357.01 370.19 357.95 369.45 359.07C364.98 365.86 360.78 371.97 358.58 372.25L358.42 372.24ZM357.13 370.73C357.519 371.025 357.984 371.202 358.47 371.24C360.4 371 365.96 362.56 368.64 358.5C369.38 357.37 370.01 356.42 370.46 355.78C371.207 354.769 372.029 353.816 372.92 352.93C374.92 350.85 376.98 348.7 377.43 344.93C377.583 343.932 377.546 342.914 377.32 341.93C376.32 347.72 373.83 350.38 366.86 357.93L366.4 358.42C360.54 364.67 358.11 368.7 357.13 370.73Z" fill="#263238"/>
<path d="M226.62 280.94C226.515 280.94 226.413 280.907 226.328 280.846C226.242 280.784 226.179 280.698 226.146 280.598C226.112 280.499 226.111 280.391 226.143 280.291C226.174 280.191 226.236 280.103 226.32 280.04C226.32 280.04 227.41 279.24 229.22 277.95C229.274 277.912 229.335 277.885 229.399 277.87C229.463 277.856 229.53 277.854 229.595 277.865C229.66 277.876 229.722 277.9 229.778 277.935C229.833 277.97 229.882 278.016 229.92 278.07C229.958 278.124 229.985 278.185 230 278.249C230.014 278.313 230.016 278.38 230.005 278.445C229.994 278.51 229.97 278.572 229.935 278.628C229.9 278.684 229.854 278.732 229.8 278.77L226.91 280.84C226.828 280.906 226.725 280.942 226.62 280.94Z" fill="white"/>
<path d="M222.87 282.73C222.87 282.73 255.87 257.4 281.53 248.07C307.19 238.74 315.87 245.07 314.2 254.07C312.53 263.07 300.87 292.07 291.87 308.07C282.87 324.07 267.53 350.4 267.53 350.4C267.53 350.4 282.2 370.73 283.53 373.07C284.86 375.41 275.2 375.73 271.2 373.4C267.763 371.578 264.425 369.575 261.2 367.4C249.54 359.74 248.87 356.74 250.53 354.07C255.86 345.52 262.29 338.37 264.87 328.07C269.55 309.33 278.22 285.07 279.2 287.73C270.811 295.743 260.813 301.879 249.87 305.73C232.2 311.73 220.68 310.18 212.87 299.73" fill="#263238"/>
<path d="M278.85 375.48C276.04 375.48 272.79 374.91 270.95 373.83C270.02 373.29 269.37 372.94 268.73 372.6C266.048 371.144 263.445 369.548 260.93 367.82C249.32 360.19 248.17 356.91 250.11 353.82C251.47 351.63 252.92 349.51 254.32 347.46C258.52 341.34 262.48 335.55 264.38 327.96C267.3 316.29 272.86 298.76 276.38 290.96C268.598 297.62 259.655 302.79 250 306.21C231.84 312.37 220.25 310.47 212.41 300.04C212.333 299.933 212.3 299.8 212.319 299.67C212.337 299.539 212.406 299.421 212.51 299.34C212.616 299.26 212.749 299.226 212.881 299.245C213.012 299.264 213.13 299.334 213.21 299.44C220.75 309.44 231.99 311.27 249.68 305.26C259.981 301.602 269.454 295.936 277.55 288.59C278.12 287.59 278.55 287.05 278.93 287.03C279.09 287.03 279.245 287.082 279.373 287.177C279.501 287.273 279.595 287.407 279.64 287.56C279.672 287.648 279.679 287.744 279.66 287.836C279.64 287.928 279.595 288.012 279.53 288.08C279.53 288.08 279.03 288.59 278.14 289.4C275.54 294.45 269.36 312.06 265.32 328.19C263.38 335.96 259.32 341.82 255.12 348.02C253.72 350.02 252.28 352.17 250.93 354.34C249.58 356.51 249.4 359.06 261.45 366.98C263.941 368.695 266.521 370.277 269.18 371.72C269.82 372.06 270.48 372.42 271.42 372.97C274.75 374.91 281.82 374.86 283.03 373.66C283.14 373.55 283.17 373.48 283.03 373.31C281.72 371.03 267.21 350.9 267.03 350.69C266.976 350.61 266.947 350.516 266.947 350.42C266.947 350.324 266.976 350.23 267.03 350.15C267.19 349.88 282.47 323.63 291.36 307.82C300.46 291.64 312 262.82 313.64 253.98C314.23 250.8 313.45 248.21 311.4 246.47C308.7 244.18 301.24 241.41 281.64 248.54C256.34 257.74 223.43 282.88 223.1 283.13C223.049 283.175 222.989 283.209 222.924 283.23C222.859 283.251 222.79 283.258 222.722 283.252C222.654 283.245 222.588 283.224 222.529 283.191C222.469 283.158 222.416 283.113 222.375 283.059C222.333 283.005 222.303 282.943 222.286 282.877C222.269 282.811 222.266 282.742 222.277 282.675C222.288 282.607 222.312 282.543 222.349 282.485C222.385 282.428 222.433 282.378 222.49 282.34C222.82 282.08 255.85 256.85 281.29 247.6C296.18 242.19 307.09 241.52 312.05 245.71C314.39 247.71 315.28 250.61 314.62 254.16C312.97 263.1 301.37 292.06 292.23 308.31C283.83 323.25 269.74 347.49 268.06 350.37C269.86 352.86 282.63 370.61 283.9 372.82C284.053 373.061 284.117 373.348 284.081 373.631C284.044 373.915 283.909 374.176 283.7 374.37C283 375.13 281.06 375.48 278.85 375.48Z" fill="#263238"/>
<path d="M233.85 275.8C233.769 275.799 233.689 275.779 233.618 275.741C233.546 275.702 233.485 275.647 233.44 275.58C233.402 275.527 233.376 275.466 233.362 275.402C233.348 275.338 233.347 275.272 233.359 275.208C233.371 275.143 233.396 275.082 233.432 275.028C233.469 274.973 233.515 274.926 233.57 274.89C240.28 270.22 249.71 263.89 256.57 260.35C256.628 260.31 256.694 260.283 256.764 260.271C256.833 260.258 256.905 260.26 256.973 260.278C257.042 260.295 257.106 260.326 257.162 260.37C257.217 260.413 257.263 260.468 257.295 260.531C257.328 260.594 257.347 260.663 257.351 260.733C257.356 260.804 257.345 260.874 257.32 260.94C257.295 261.006 257.256 261.066 257.206 261.116C257.156 261.166 257.096 261.205 257.03 261.23C250.24 264.77 240.84 271.05 234.16 275.71C234.069 275.772 233.96 275.804 233.85 275.8Z" fill="white"/>
<path d="M267.29 296.94C267.217 296.94 267.145 296.924 267.08 296.893C267.014 296.862 266.956 296.816 266.91 296.76C266.825 296.657 266.784 296.525 266.795 296.393C266.806 296.26 266.869 296.137 266.97 296.05L275.54 288.84C276.08 286.92 281.78 267.67 294.4 257.66C294.451 257.618 294.511 257.587 294.575 257.568C294.639 257.549 294.706 257.543 294.772 257.551C294.838 257.558 294.902 257.579 294.96 257.611C295.018 257.644 295.069 257.688 295.11 257.74C295.192 257.844 295.229 257.975 295.214 258.106C295.199 258.238 295.133 258.358 295.03 258.44C282.03 268.73 276.51 289.05 276.46 289.25C276.433 289.35 276.377 289.441 276.3 289.51L267.62 296.82C267.527 296.897 267.41 296.939 267.29 296.94Z" fill="white"/>
<path d="M301.11 290.08C301.051 290.094 300.989 290.094 300.93 290.08C300.869 290.057 300.814 290.022 300.767 289.977C300.72 289.932 300.682 289.878 300.656 289.819C300.63 289.759 300.616 289.695 300.615 289.63C300.614 289.565 300.626 289.5 300.65 289.44L302.48 284.87C302.503 284.808 302.538 284.751 302.584 284.703C302.63 284.656 302.684 284.617 302.745 284.591C302.806 284.565 302.871 284.551 302.937 284.551C303.004 284.551 303.069 284.564 303.13 284.59C303.252 284.641 303.349 284.737 303.401 284.859C303.453 284.98 303.456 285.116 303.41 285.24L301.58 289.81C301.535 289.895 301.467 289.965 301.384 290.013C301.301 290.06 301.206 290.084 301.11 290.08Z" fill="white"/>
<path d="M304.55 281.49C304.487 281.5 304.423 281.5 304.36 281.49C304.238 281.439 304.141 281.343 304.089 281.222C304.037 281.1 304.033 280.964 304.08 280.84L310.7 264.29C310.724 264.229 310.76 264.173 310.806 264.126C310.852 264.079 310.906 264.041 310.967 264.015C311.027 263.989 311.092 263.975 311.158 263.975C311.224 263.974 311.289 263.986 311.35 264.01C311.411 264.034 311.467 264.07 311.514 264.116C311.561 264.162 311.599 264.217 311.625 264.277C311.651 264.337 311.664 264.402 311.665 264.468C311.666 264.534 311.654 264.599 311.63 264.66L305 281.18C304.963 281.27 304.901 281.347 304.821 281.402C304.741 281.457 304.647 281.488 304.55 281.49Z" fill="white"/>
<path d="M271.2 373.4C275.2 375.73 284.87 375.4 283.53 373.07C282.19 370.74 267.53 350.4 267.53 350.4C267.53 350.4 271.59 343.4 276.76 334.48C270.32 333.65 266.7 330.92 264.76 328.56C262.1 338.56 255.76 345.66 250.56 354.07C248.9 356.74 249.56 359.74 261.23 367.4C264.445 369.575 267.773 371.577 271.2 373.4Z" fill="#D9D9D9"/>
<path d="M278.85 375.48C276.04 375.48 272.79 374.91 270.95 373.83C270.02 373.29 269.37 372.94 268.73 372.6C266.049 371.144 263.445 369.548 260.93 367.82C249.32 360.19 248.17 356.91 250.11 353.82C251.47 351.64 252.91 349.53 254.31 347.48C258.42 341.48 262.31 335.81 264.25 328.48C264.272 328.392 264.318 328.311 264.384 328.247C264.449 328.184 264.531 328.14 264.62 328.12C264.709 328.104 264.801 328.111 264.887 328.141C264.973 328.171 265.05 328.222 265.11 328.29C266.92 330.46 270.43 333.21 276.82 334.03C276.902 334.044 276.98 334.076 277.048 334.124C277.115 334.173 277.171 334.237 277.21 334.31C277.249 334.382 277.27 334.463 277.27 334.545C277.27 334.627 277.249 334.708 277.21 334.78C272.65 342.68 268.96 349.04 268.15 350.42C269.95 352.91 282.72 370.66 283.99 372.87C284.143 373.111 284.207 373.398 284.171 373.681C284.134 373.965 283.999 374.226 283.79 374.42C283 375.13 281.06 375.48 278.85 375.48ZM265 329.58C262.94 336.68 259.16 342.2 255.16 348.04C253.77 350.04 252.33 352.18 250.99 354.34C249.65 356.5 249.46 359.06 261.51 366.98C264.001 368.695 266.582 370.277 269.24 371.72C269.88 372.06 270.54 372.42 271.48 372.97C274.81 374.91 281.88 374.86 283.09 373.66C283.2 373.55 283.23 373.48 283.09 373.31C281.78 371.03 267.27 350.9 267.09 350.69C267.036 350.611 267.007 350.516 267.007 350.42C267.007 350.324 267.036 350.23 267.09 350.15C267.09 350.15 270.96 343.51 275.95 334.87C270.34 334 267 331.65 265 329.58Z" fill="#263238"/>
<path d="M267.53 350.4C267.53 350.4 266.2 349.4 264.53 352.07C263.488 353.765 262.598 355.548 261.87 357.4L254.13 348.62C252.91 350.4 251.7 352.2 250.53 354.07C248.87 356.74 249.53 359.74 261.2 367.4C264.425 369.576 267.763 371.578 271.2 373.4C275.2 375.73 284.87 375.4 283.53 373.07C282.19 370.74 267.53 350.4 267.53 350.4Z" fill="white"/>
<path d="M278.85 375.48C276.04 375.48 272.79 374.91 270.95 373.83C270.02 373.29 269.37 372.94 268.73 372.6C266.049 371.143 263.445 369.548 260.93 367.82C249.32 360.19 248.17 356.91 250.11 353.82C251.32 351.88 252.61 349.98 253.72 348.35C253.762 348.287 253.819 348.234 253.885 348.196C253.95 348.158 254.024 348.135 254.1 348.13C254.177 348.124 254.254 348.136 254.325 348.166C254.397 348.195 254.46 348.241 254.51 348.3L261.71 356.47C262.392 354.859 263.195 353.301 264.11 351.81C264.351 351.322 264.689 350.889 265.104 350.537C265.518 350.184 266 349.92 266.52 349.76C266.744 349.712 266.975 349.71 267.2 349.753C267.425 349.796 267.639 349.883 267.83 350.01C267.874 350.039 267.911 350.076 267.94 350.12C268.54 350.95 282.64 370.5 283.94 372.83C284.093 373.071 284.157 373.358 284.121 373.641C284.084 373.924 283.949 374.186 283.74 374.38C283 375.13 281.06 375.48 278.85 375.48ZM254.18 349.43C253.18 350.93 252.03 352.62 250.96 354.34C249.67 356.39 249.43 359.06 261.48 366.98C263.971 368.695 266.552 370.277 269.21 371.72C269.85 372.06 270.51 372.42 271.45 372.97C274.78 374.91 281.85 374.86 283.06 373.66C283.17 373.55 283.2 373.48 283.06 373.31C281.8 371.11 268.2 352.23 267.15 350.78C266.981 350.726 266.799 350.726 266.63 350.78C266.25 350.86 265.63 351.2 264.92 352.37C263.894 354.041 263.014 355.797 262.29 357.62C262.26 357.699 262.211 357.769 262.146 357.824C262.081 357.878 262.003 357.915 261.92 357.93C261.835 357.945 261.747 357.938 261.665 357.91C261.583 357.882 261.509 357.834 261.45 357.77L254.18 349.43Z" fill="#263238"/>
<path d="M261.2 367.4C264.425 369.576 267.763 371.578 271.2 373.4C274.8 375.5 282.98 375.4 283.62 373.71C268.44 372.9 255.86 360.82 250.29 354.5C249 357.07 250.17 360.15 261.2 367.4Z" fill="white"/>
<path d="M278.76 375.5C276.061 375.572 273.384 374.999 270.95 373.83C270.02 373.29 269.37 372.94 268.73 372.6C266.048 371.144 263.445 369.548 260.93 367.82C249.7 360.44 248.36 357.17 249.84 354.28C249.876 354.207 249.93 354.144 249.996 354.097C250.063 354.049 250.14 354.019 250.221 354.008C250.302 353.997 250.384 354.006 250.46 354.034C250.537 354.063 250.605 354.109 250.66 354.17C256.66 360.95 268.87 372.43 283.66 373.17C283.738 373.171 283.815 373.192 283.883 373.231C283.951 373.269 284.008 373.324 284.05 373.39C284.094 373.455 284.122 373.53 284.133 373.608C284.143 373.686 284.135 373.766 284.11 373.84C283.972 374.109 283.779 374.345 283.543 374.533C283.306 374.721 283.033 374.856 282.74 374.93C281.453 375.335 280.109 375.527 278.76 375.5ZM250.45 355.44C249.93 357.31 251.12 360.17 261.45 366.98C263.941 368.695 266.521 370.277 269.18 371.72C269.82 372.06 270.48 372.42 271.42 372.97C274.08 374.52 279.58 374.89 282.14 374.1C268.1 372.72 256.5 362.16 250.45 355.44Z" fill="#263238"/>
<g clip-path="url(#clip0_30_9)">
<path d="M333.839 177.16C334.696 174.742 334.558 172.083 333.454 169.767C332.35 167.451 330.372 165.669 327.954 164.812C325.536 163.954 322.877 164.093 320.561 165.197C318.245 166.3 316.463 168.279 315.605 170.697C314.748 173.115 314.887 175.774 315.99 178.09C317.094 180.406 319.073 182.188 321.49 183.045C323.908 183.902 326.568 183.764 328.884 182.66C331.199 181.556 332.982 179.578 333.839 177.16ZM313.502 169.951C314.556 166.975 316.75 164.54 319.6 163.182C322.451 161.823 325.724 161.653 328.7 162.708C331.676 163.763 334.111 165.956 335.469 168.807C336.827 171.657 336.998 174.93 335.943 177.906C334.888 180.882 332.694 183.317 329.844 184.675C326.994 186.033 323.721 186.204 320.745 185.149C317.769 184.094 315.334 181.9 313.975 179.05C312.617 176.2 312.447 172.927 313.502 169.951ZM318.331 174.519C318.358 173.858 319.044 173.494 319.667 173.715L328.981 177.017C329.603 177.237 329.906 177.956 329.512 178.483C327.929 180.611 325.087 181.557 322.457 180.625C319.827 179.693 318.216 177.168 318.331 174.519ZM320.825 169.389C320.957 169.017 321.231 168.713 321.587 168.543C321.944 168.373 322.353 168.352 322.725 168.484C323.097 168.616 323.401 168.89 323.571 169.246C323.741 169.603 323.762 170.012 323.63 170.384C323.498 170.756 323.224 171.06 322.868 171.23C322.512 171.4 322.102 171.421 321.73 171.289C321.358 171.157 321.054 170.883 320.884 170.527C320.714 170.17 320.693 169.761 320.825 169.389ZM329.738 170.97C330.11 171.102 330.414 171.376 330.584 171.732C330.754 172.088 330.775 172.498 330.643 172.87C330.511 173.242 330.237 173.546 329.881 173.716C329.524 173.885 329.115 173.907 328.743 173.775C328.371 173.643 328.067 173.369 327.897 173.013C327.727 172.656 327.706 172.247 327.838 171.875C327.97 171.503 328.244 171.199 328.6 171.029C328.957 170.859 329.366 170.838 329.738 170.97Z" fill="#34495E"/>
</g>
<g clip-path="url(#clip1_30_9)">
<path d="M222.073 378.868C220.889 376.593 218.849 374.881 216.402 374.109C213.956 373.337 211.303 373.569 209.027 374.753C206.752 375.937 205.04 377.977 204.268 380.423C203.496 382.87 203.728 385.523 204.912 387.798C206.096 390.074 208.136 391.786 210.582 392.558C213.029 393.33 215.682 393.098 217.957 391.914C220.233 390.73 221.945 388.69 222.717 386.243C223.489 383.797 223.257 381.144 222.073 378.868ZM202.932 388.829C201.474 386.028 201.189 382.763 202.139 379.752C203.089 376.741 205.196 374.23 207.997 372.773C210.798 371.315 214.063 371.03 217.074 371.98C220.085 372.93 222.595 375.037 224.053 377.838C225.51 380.639 225.796 383.904 224.846 386.915C223.896 389.926 221.789 392.436 218.988 393.894C216.187 395.351 212.922 395.636 209.911 394.687C206.9 393.737 204.389 391.63 202.932 388.829ZM212.884 390.365C212.967 390.977 212.539 391.535 211.927 391.618C211.315 391.701 210.757 391.273 210.674 390.661C210.353 388.291 211.824 385.879 214.179 384.653C216.535 383.428 219.354 383.607 221.117 385.232C221.571 385.651 221.597 386.356 221.182 386.807C220.767 387.259 220.058 387.287 219.606 386.872C218.671 386.012 216.909 385.749 215.21 386.633C213.51 387.518 212.714 389.112 212.884 390.365ZM207.858 383.749C207.676 383.399 207.64 382.991 207.759 382.614C207.878 382.238 208.141 381.924 208.491 381.742C208.842 381.56 209.25 381.524 209.626 381.643C210.002 381.762 210.316 382.025 210.498 382.375C210.681 382.725 210.716 383.133 210.598 383.51C210.479 383.886 210.215 384.2 209.865 384.382C209.515 384.564 209.107 384.6 208.731 384.481C208.354 384.362 208.04 384.099 207.858 383.749ZM215.092 378.307C215.442 378.125 215.85 378.089 216.226 378.208C216.603 378.327 216.917 378.59 217.099 378.94C217.281 379.291 217.317 379.699 217.198 380.075C217.079 380.451 216.816 380.765 216.466 380.947C216.115 381.13 215.707 381.165 215.331 381.047C214.955 380.928 214.641 380.664 214.459 380.314C214.276 379.964 214.241 379.556 214.36 379.18C214.478 378.803 214.742 378.489 215.092 378.307Z" fill="#34495E"/>
</g>
<defs>
<clipPath id="clip0_30_9">
<rect width="23.8095" height="23.8095" fill="white" transform="translate(317.479 158.73) rotate(19.5183)"/>
</clipPath>
<clipPath id="clip1_30_9">
<rect width="23.8095" height="23.8095" fill="white" transform="translate(196.661 382.95) rotate(-43.695)"/>
</clipPath>
</defs>
</svg>
