<svg width="33" height="33" viewBox="0 0 33 33" fill="none" xmlns="http://www.w3.org/2000/svg">
<g clip-path="url(#clip0_38_1090)">
<path d="M16.5 3.09375C20.0556 3.09375 23.4655 4.50619 25.9797 7.02035C28.4938 9.53451 29.9062 12.9444 29.9062 16.5C29.9062 20.0556 28.4938 23.4655 25.9797 25.9797C23.4655 28.4938 20.0556 29.9062 16.5 29.9062C12.9444 29.9062 9.53451 28.4938 7.02035 25.9797C4.50619 23.4655 3.09375 20.0556 3.09375 16.5C3.09375 12.9444 4.50619 9.53451 7.02035 7.02035C9.53451 4.50619 12.9444 3.09375 16.5 3.09375ZM16.5 33C20.8761 33 25.0729 31.2616 28.1673 28.1673C31.2616 25.0729 33 20.8761 33 16.5C33 12.1239 31.2616 7.92709 28.1673 4.83274C25.0729 1.73839 20.8761 0 16.5 0C12.1239 0 7.92709 1.73839 4.83274 4.83274C1.73839 7.92709 0 12.1239 0 16.5C0 20.8761 1.73839 25.0729 4.83274 28.1673C7.92709 31.2616 12.1239 33 16.5 33ZM21.1664 25.3623C21.7916 24.7822 21.8238 23.8025 21.2437 23.1773C20.3221 22.1912 18.7301 21.1406 16.5 21.1406C14.2699 21.1406 12.6779 22.1912 11.7627 23.1773C11.1826 23.8025 11.2148 24.7822 11.84 25.3623C12.4652 25.9424 13.4449 25.9102 14.025 25.285C14.502 24.7758 15.3141 24.2279 16.5064 24.2279C17.6988 24.2279 18.5109 24.7758 18.9879 25.285C19.568 25.9102 20.5477 25.9424 21.1729 25.3623H21.1664ZM11.3695 17.5312C12.5104 17.5312 13.432 16.6096 13.432 15.4688C13.432 15.3721 13.4256 15.2754 13.4127 15.1852L14.1152 15.4172C14.6566 15.5977 15.2367 15.3076 15.4172 14.7662C15.5977 14.2248 15.3076 13.6447 14.7662 13.4643L8.57871 11.4018C8.0373 11.2213 7.45723 11.5113 7.27676 12.0527C7.09629 12.5941 7.38633 13.1742 7.92773 13.3547L9.90645 14.0121C9.53262 14.3859 9.30703 14.9016 9.30703 15.4688C9.30703 16.6096 10.2287 17.5312 11.3695 17.5312ZM23.7445 15.4688C23.7445 14.8951 23.5125 14.373 23.1322 13.9992L25.0787 13.3482C25.6201 13.1678 25.9102 12.5812 25.7297 12.0463C25.5492 11.5113 24.9627 11.2148 24.4277 11.3953L18.2402 13.4578C17.6988 13.6383 17.4088 14.2248 17.5893 14.7598C17.7697 15.2947 18.3563 15.5912 18.8912 15.4107L19.6453 15.1594C19.6324 15.2561 19.626 15.3592 19.626 15.4623C19.626 16.6031 20.5477 17.5248 21.6885 17.5248C22.8293 17.5248 23.751 16.6031 23.751 15.4623L23.7445 15.4688Z" fill="#34495E"/>
</g>
<defs>
<clipPath id="clip0_38_1090">
<rect width="33" height="33" fill="white"/>
</clipPath>
</defs>
</svg>
