<svg width="33" height="33" viewBox="0 0 33 33" fill="none" xmlns="http://www.w3.org/2000/svg">
<g clip-path="url(#clip0_38_1092)">
<path d="M29.9062 16.5C29.9062 20.0556 28.4938 23.4655 25.9797 25.9797C23.4655 28.4938 20.0556 29.9062 16.5 29.9062C12.9444 29.9062 9.53451 28.4938 7.02035 25.9797C4.50619 23.4655 3.09375 20.0556 3.09375 16.5C3.09375 12.9444 4.50619 9.53451 7.02035 7.02035C9.53451 4.50619 12.9444 3.09375 16.5 3.09375C20.0556 3.09375 23.4655 4.50619 25.9797 7.02035C28.4938 9.53451 29.9062 12.9444 29.9062 16.5ZM16.5 0C12.1239 0 7.92709 1.73839 4.83274 4.83274C1.73839 7.92709 0 12.1239 0 16.5C0 20.8761 1.73839 25.0729 4.83274 28.1673C7.92709 31.2616 12.1239 33 16.5 33C20.8761 33 25.0729 31.2616 28.1673 28.1673C31.2616 25.0729 33 20.8761 33 16.5C33 12.1239 31.2616 7.92709 28.1673 4.83274C25.0729 1.73839 20.8761 0 16.5 0ZM10.3383 15.9844C10.7485 15.9844 11.142 15.8214 11.4321 15.5313C11.7222 15.2412 11.8852 14.8478 11.8852 14.4375C11.8852 14.0272 11.7222 13.6338 11.4321 13.3437C11.142 13.0536 10.7485 12.8906 10.3383 12.8906C9.92802 12.8906 9.53457 13.0536 9.24448 13.3437C8.95438 13.6338 8.79141 14.0272 8.79141 14.4375C8.79141 14.8478 8.95438 15.2412 9.24448 15.5313C9.53457 15.8214 9.92802 15.9844 10.3383 15.9844ZM24.2602 14.4375C24.2602 14.0272 24.0972 13.6338 23.8071 13.3437C23.517 13.0536 23.1235 12.8906 22.7133 12.8906C22.303 12.8906 21.9096 13.0536 21.6195 13.3437C21.3294 13.6338 21.1664 14.0272 21.1664 14.4375C21.1664 14.8478 21.3294 15.2412 21.6195 15.5313C21.9096 15.8214 22.303 15.9844 22.7133 15.9844C23.1235 15.9844 23.517 15.8214 23.8071 15.5313C24.0972 15.2412 24.2602 14.8478 24.2602 14.4375ZM12.375 21.6562C11.5178 21.6562 10.8281 22.3459 10.8281 23.2031C10.8281 24.0604 11.5178 24.75 12.375 24.75H20.625C21.4822 24.75 22.1719 24.0604 22.1719 23.2031C22.1719 22.3459 21.4822 21.6562 20.625 21.6562H12.375ZM10.3125 11.3438C10.7188 11.3438 11.1211 11.4238 11.4964 11.5792C11.8718 11.7347 12.2128 11.9626 12.5001 12.2499C12.7874 12.5372 13.0153 12.8782 13.1708 13.2536C13.3262 13.6289 13.4062 14.0312 13.4062 14.4375C13.4062 14.8438 13.3262 15.2461 13.1708 15.6214C13.0153 15.9968 12.7874 16.3378 12.5001 16.6251C12.2128 16.9124 11.8718 17.1403 11.4964 17.2958C11.1211 17.4512 10.7188 17.5312 10.3125 17.5312C9.90622 17.5312 9.50392 17.4512 9.12857 17.2958C8.75322 17.1403 8.41217 16.9124 8.12489 16.6251C7.83761 16.3378 7.60972 15.9968 7.45425 15.6214C7.29877 15.2461 7.21875 14.8438 7.21875 14.4375C7.21875 14.0312 7.29877 13.6289 7.45425 13.2536C7.60972 12.8782 7.83761 12.5372 8.12489 12.2499C8.41217 11.9626 8.75322 11.7347 9.12857 11.5792C9.50392 11.4238 9.90622 11.3438 10.3125 11.3438ZM10.3125 19.5938C11.68 19.5938 12.9915 19.0505 13.9585 18.0835C14.9255 17.1165 15.4688 15.805 15.4688 14.4375C15.4688 13.07 14.9255 11.7585 13.9585 10.7915C12.9915 9.8245 11.68 9.28125 10.3125 9.28125C8.94498 9.28125 7.63347 9.8245 6.66648 10.7915C5.6995 11.7585 5.15625 13.07 5.15625 14.4375C5.15625 15.805 5.6995 17.1165 6.66648 18.0835C7.63347 19.0505 8.94498 19.5938 10.3125 19.5938ZM19.5938 14.4375C19.5938 14.0312 19.6738 13.6289 19.8292 13.2536C19.9847 12.8782 20.2126 12.5372 20.4999 12.2499C20.7872 11.9626 21.1282 11.7347 21.5036 11.5792C21.8789 11.4238 22.2812 11.3438 22.6875 11.3438C23.0938 11.3438 23.4961 11.4238 23.8714 11.5792C24.2468 11.7347 24.5878 11.9626 24.8751 12.2499C25.1624 12.5372 25.3903 12.8782 25.5458 13.2536C25.7012 13.6289 25.7812 14.0312 25.7812 14.4375C25.7812 14.8438 25.7012 15.2461 25.5458 15.6214C25.3903 15.9968 25.1624 16.3378 24.8751 16.6251C24.5878 16.9124 24.2468 17.1403 23.8714 17.2958C23.4961 17.4512 23.0938 17.5312 22.6875 17.5312C22.2812 17.5312 21.8789 17.4512 21.5036 17.2958C21.1282 17.1403 20.7872 16.9124 20.4999 16.6251C20.2126 16.3378 19.9847 15.9968 19.8292 15.6214C19.6738 15.2461 19.5938 14.8438 19.5938 14.4375ZM27.8438 14.4375C27.8438 13.07 27.3005 11.7585 26.3335 10.7915C25.3665 9.8245 24.055 9.28125 22.6875 9.28125C21.32 9.28125 20.0085 9.8245 19.0415 10.7915C18.0745 11.7585 17.5312 13.07 17.5312 14.4375C17.5312 15.805 18.0745 17.1165 19.0415 18.0835C20.0085 19.0505 21.32 19.5938 22.6875 19.5938C24.055 19.5938 25.3665 19.0505 26.3335 18.0835C27.3005 17.1165 27.8438 15.805 27.8438 14.4375Z" fill="#34495E"/>
</g>
<defs>
<clipPath id="clip0_38_1092">
<rect width="33" height="33" fill="white"/>
</clipPath>
</defs>
</svg>
