<svg width="35" height="35" viewBox="0 0 35 35" fill="none" xmlns="http://www.w3.org/2000/svg">
<path d="M17.5 8.4445C19.8002 8.4445 21.665 6.57977 21.665 4.2795C21.665 1.97924 19.8002 0.114502 17.5 0.114502C15.1997 0.114502 13.335 1.97924 13.335 4.2795C13.335 6.57977 15.1997 8.4445 17.5 8.4445Z" fill="#34495E"/>
<path d="M32.8621 22.8703L26.8465 20.1731L25.1074 13.7915L24.8456 12.6569H24.8354C24.7173 12.1859 24.3629 11.8096 23.8926 11.6805L23.757 11.6295L22.777 11.211C22.5663 11.1191 22.2943 11.0309 21.9268 10.9492C17.1785 9.8671 13.2118 10.9492 13.2118 10.9492C12.4666 11.1089 11.208 11.8716 11.208 11.8716L11.0979 11.9226L11.1052 11.9365C10.7669 12.1166 10.5015 12.4112 10.3899 12.7838H10.3906L10.3688 12.8589C10.3666 12.8742 10.3586 12.8895 10.3556 12.9048L8.50793 19.2588L8.16085 20.2169L2.13647 22.8674L3.41981 25.7841L5.27554 24.9667L4.44939 26.8297L12.961 30.5966L11.1825 31.3855L12.6029 34.5939L17.2944 32.5143L22.6472 34.8855L24.0698 31.6772L21.6256 30.5966L30.8029 26.5366L30.041 24.8165L31.667 25.5442L32.8621 22.8703ZM8.85137 24.9368L7.10137 24.1624L10.7188 22.5714L10.7056 22.5415L12.3645 17.982L13.2125 23.3902L8.85137 24.9368ZM26.5716 24.5649L21.9275 23.3902L22.6479 18.3655L22.6851 17.8012L24.5197 22.2753L24.4956 22.3264L24.5467 22.3504L24.5569 22.3672L24.5686 22.3599L28.0423 23.9152L26.5716 24.5649Z" fill="#34495E"/>
</svg>
