<svg width="30" height="33" viewBox="0 0 30 33" fill="none" xmlns="http://www.w3.org/2000/svg">
<g clip-path="url(#clip0_42_48)">
<path d="M14.9999 0C15.8906 0 16.6071 0.689648 16.6071 1.54688V4.51816L18.1473 3.03574C18.7767 2.42988 19.7946 2.42988 20.4173 3.03574C21.0401 3.6416 21.0468 4.62129 20.4173 5.2207L16.6004 8.89453V13.8252L21.0334 11.3631L22.433 6.34863C22.6607 5.52363 23.5446 5.03379 24.4017 5.25293C25.2589 5.47207 25.7678 6.32285 25.5401 7.14785L24.9776 9.16523L27.462 7.78594C28.2321 7.36055 29.2165 7.61191 29.6584 8.35313C30.1004 9.09434 29.8392 10.0418 29.0691 10.4672L26.5848 11.8465L28.6941 12.3879C29.5513 12.607 30.0602 13.4578 29.8325 14.2828C29.6048 15.1078 28.7209 15.5977 27.8638 15.3785L22.654 14.0314L18.2142 16.5L22.6473 18.9621L27.8571 17.615C28.7142 17.3959 29.5982 17.8857 29.8258 18.7107C30.0535 19.5357 29.5446 20.3865 28.6874 20.6057L26.5848 21.1535L29.0691 22.5328C29.8392 22.9582 30.1004 23.9057 29.6584 24.6469C29.2165 25.3881 28.2321 25.6395 27.462 25.2141L24.9776 23.8348L25.5401 25.865C25.7678 26.69 25.2589 27.5408 24.4017 27.76C23.5446 27.9791 22.6607 27.4893 22.433 26.6643L21.0334 21.6498L16.6071 19.1812V24.1119L20.424 27.7857C21.0535 28.3916 21.0535 29.3713 20.424 29.9707C19.7946 30.5701 18.7767 30.5766 18.154 29.9707L16.6138 28.4883V31.4531C16.6138 32.3104 15.8973 33 15.0066 33C14.116 33 13.3995 32.3104 13.3995 31.4531V28.4818L11.8593 29.9643C11.2298 30.5701 10.212 30.5701 9.58922 29.9643C8.96645 29.3584 8.95976 28.3787 9.58922 27.7793L13.4062 24.1055V19.1812L8.97315 21.6434L7.5736 26.6578C7.34592 27.4828 6.46199 27.9727 5.60485 27.7535C4.7477 27.5344 4.23878 26.6836 4.46645 25.8586L5.02226 23.8348L2.53788 25.2141C1.76779 25.6395 0.783418 25.3881 0.341453 24.6469C-0.100511 23.9057 0.16065 22.9582 0.930739 22.5328L3.41511 21.1535L1.30574 20.6121C0.448596 20.393 -0.0603323 19.5422 0.167346 18.7172C0.395025 17.8922 1.27895 17.4023 2.1361 17.6215L7.34592 18.9686L11.7857 16.5L7.35261 14.0379L2.1361 15.3785C1.27895 15.5977 0.395025 15.1078 0.167346 14.2828C-0.0603323 13.4578 0.448596 12.607 1.30574 12.3879L3.41511 11.8465L0.930739 10.4672C0.16065 10.0418 -0.100511 9.09434 0.341453 8.35313C0.783418 7.61191 1.76779 7.36055 2.53788 7.78594L5.02226 9.16523L4.45976 7.13496C4.23208 6.30996 4.74101 5.45918 5.59815 5.24004C6.45529 5.0209 7.33922 5.51074 7.5669 6.33574L8.96645 11.3502L13.3928 13.8187V8.88809L9.57583 5.2207C8.94637 4.61484 8.94637 3.63516 9.57583 3.03574C10.2053 2.43633 11.2232 2.42988 11.8459 3.03574L13.3861 4.51816V1.54688C13.3861 0.689648 14.1026 0 14.9932 0H14.9999Z" fill="#34495E"/>
</g>
<defs>
<clipPath id="clip0_42_48">
<rect width="30" height="33" fill="white"/>
</clipPath>
</defs>
</svg>
