<svg width="33" height="33" viewBox="0 0 33 33" fill="none" xmlns="http://www.w3.org/2000/svg">
<g clip-path="url(#clip0_38_1088)">
<path d="M0 16.5L2.44922 1.80469C2.62109 0.773438 3.78984 0 5.18203 0H19.6711C20.9602 0 22 0.779883 22 1.74668C22 1.95293 21.9484 2.16562 21.8539 2.35898L17.875 10.3125H29.8461C31.582 10.3125 33 11.3695 33 12.6779C33 13.1549 32.8109 13.6189 32.45 14.0121L15.9328 32.1234C15.4258 32.6777 14.5922 33.0064 13.707 33.0064H13.4578C12.1086 33.0064 11.0086 32.1814 11.0086 31.1695C11.0086 31.0213 11.0344 30.873 11.0859 30.7248L15.125 18.5625H2.75C1.22891 18.5625 0 17.6408 0 16.5Z" fill="#34495E"/>
</g>
<defs>
<clipPath id="clip0_38_1088">
<rect width="33" height="33" fill="white"/>
</clipPath>
</defs>
</svg>
