<svg width="33" height="33" viewBox="0 0 33 33" fill="none" xmlns="http://www.w3.org/2000/svg">
<g clip-path="url(#clip0_35_703)">
<path d="M29.9062 16.5C29.9062 12.9444 28.4938 9.53451 25.9797 7.02035C23.4655 4.50619 20.0556 3.09375 16.5 3.09375C12.9444 3.09375 9.53451 4.50619 7.02035 7.02035C4.50619 9.53451 3.09375 12.9444 3.09375 16.5C3.09375 20.0556 4.50619 23.4655 7.02035 25.9797C9.53451 28.4938 12.9444 29.9062 16.5 29.9062C20.0556 29.9062 23.4655 28.4938 25.9797 25.9797C28.4938 23.4655 29.9062 20.0556 29.9062 16.5ZM0 16.5C0 12.1239 1.73839 7.92709 4.83274 4.83274C7.92709 1.73839 12.1239 0 16.5 0C20.8761 0 25.0729 1.73839 28.1673 4.83274C31.2616 7.92709 33 12.1239 33 16.5C33 20.8761 31.2616 25.0729 28.1673 28.1673C25.0729 31.2616 20.8761 33 16.5 33C12.1239 33 7.92709 31.2616 4.83274 28.1673C1.73839 25.0729 0 20.8761 0 16.5ZM22.5264 19.8773C23.7316 19.5938 24.8402 20.6508 24.1699 21.6885C22.5844 24.1441 19.742 25.7812 16.4936 25.7812C13.2451 25.7812 10.4027 24.1441 8.81719 21.6885C8.14688 20.6508 9.25547 19.5938 10.4607 19.8773C12.3234 20.3156 14.3602 20.5541 16.4936 20.5541C18.627 20.5541 20.6637 20.3156 22.5264 19.8773ZM14.025 14.7469L14.0121 14.734C13.9992 14.7211 13.9863 14.7018 13.967 14.676C13.9283 14.6244 13.8639 14.5471 13.7865 14.4568C13.6254 14.2764 13.3998 14.0314 13.1291 13.793C12.5619 13.2902 11.9174 12.8906 11.3438 12.8906C10.7701 12.8906 10.1256 13.2902 9.5584 13.793C9.2877 14.0314 9.06211 14.2764 8.90098 14.4568C8.82363 14.5471 8.75918 14.6244 8.72051 14.676C8.70117 14.7018 8.68184 14.7211 8.67539 14.734L8.6625 14.7469C8.52715 14.9273 8.29512 14.9982 8.08887 14.9273C7.88262 14.8564 7.73438 14.6631 7.73438 14.4375C7.73438 13.2838 8.16621 12.143 8.8043 11.2922C9.43594 10.4543 10.3447 9.79688 11.3438 9.79688C12.3428 9.79688 13.2516 10.4543 13.8832 11.2922C14.5213 12.143 14.9531 13.2838 14.9531 14.4375C14.9531 14.6566 14.8113 14.8564 14.5986 14.9273C14.3859 14.9982 14.1539 14.9273 14.025 14.7469ZM24.3375 14.7469L24.3246 14.734C24.3117 14.7211 24.2988 14.7018 24.2795 14.676C24.2408 14.6244 24.1764 14.5471 24.099 14.4568C23.9379 14.2764 23.7123 14.0314 23.4416 13.793C22.8744 13.2902 22.2299 12.8906 21.6562 12.8906C21.0826 12.8906 20.4381 13.2902 19.8709 13.793C19.6002 14.0314 19.3746 14.2764 19.2135 14.4568C19.1361 14.5471 19.0717 14.6244 19.033 14.676C19.0137 14.7018 18.9943 14.7211 18.9879 14.734L18.975 14.7469C18.8396 14.9273 18.6076 14.9982 18.4014 14.9273C18.1951 14.8564 18.0469 14.6631 18.0469 14.4375C18.0469 13.2838 18.4787 12.143 19.1168 11.2922C19.7484 10.4543 20.6572 9.79688 21.6562 9.79688C22.6553 9.79688 23.5641 10.4543 24.1957 11.2922C24.8338 12.143 25.2656 13.2838 25.2656 14.4375C25.2656 14.6566 25.1238 14.8564 24.9111 14.9273C24.6984 14.9982 24.4664 14.9273 24.3375 14.7469Z" fill="#34495E"/>
</g>
<defs>
<clipPath id="clip0_35_703">
<rect width="33" height="33" fill="white"/>
</clipPath>
</defs>
</svg>
