<svg width="33" height="33" viewBox="0 0 33 33" fill="none" xmlns="http://www.w3.org/2000/svg">
<g clip-path="url(#clip0_38_1102)">
<path d="M25.6507 14.0855C26.2241 14.5819 26.286 15.4509 25.7896 16.0256C24.7872 17.182 23.3462 17.8709 21.93 17.8709H21.9038C20.9262 17.864 19.4893 17.5381 18.1996 16.0119C17.7101 15.433 17.7816 14.5654 18.3618 14.0745C18.9421 13.5864 19.8097 13.6551 20.3006 14.2367C20.7928 14.8197 21.3387 15.1167 21.9217 15.1209H21.9313C22.5515 15.1209 23.2321 14.7771 23.7106 14.2244C24.207 13.6538 25.0773 13.5878 25.6507 14.0855ZM10.93 17.8709C12.3462 17.8709 13.7872 17.182 14.7896 16.0256C15.286 15.4509 15.2241 14.5819 14.6507 14.0855C14.0773 13.5878 13.2083 13.6538 12.7106 14.2244C12.2307 14.7771 11.5501 15.1209 10.9313 15.1209H10.9217C10.3387 15.1167 9.7942 14.8197 9.30058 14.2367C8.80833 13.6551 7.94345 13.585 7.36183 14.0745C6.78296 14.5654 6.71008 15.433 7.19958 16.0119C8.48933 17.5368 9.9262 17.864 10.9038 17.8709H10.93ZM22.4621 20.9729C22.4346 20.9963 19.7052 23.375 16.5001 23.375C13.3183 23.375 10.6055 21.0306 10.5395 20.9729C9.97433 20.4683 9.10533 20.5191 8.59933 21.0842C8.09333 21.6507 8.14145 22.5198 8.70933 23.0258C8.85096 23.1523 12.228 26.125 16.5001 26.125C20.7722 26.125 24.1492 23.1523 24.2908 23.0258C24.856 22.5211 24.9055 21.6549 24.4022 21.0884C23.899 20.5219 23.0313 20.4696 22.4621 20.9729ZM32.9602 16.5C32.9602 25.5984 25.5586 33 16.4602 33C7.36183 33 -0.0397949 25.5984 -0.0397949 16.5C-0.0397949 7.40162 7.36183 0 16.4602 0C25.5586 0 32.9602 7.40162 32.9602 16.5ZM30.2102 16.5C30.2102 8.91825 24.042 2.75 16.4602 2.75C8.87846 2.75 2.71021 8.91825 2.71021 16.5C2.71021 24.0817 8.87846 30.25 16.4602 30.25C24.042 30.25 30.2102 24.0817 30.2102 16.5ZM8.21021 12.375C8.61446 12.375 9.01458 12.1976 9.28683 11.8566C10.1462 10.7786 11.5267 9.845 12.6432 9.59062C13.3843 9.4215 13.8463 8.6845 13.6758 7.94475C13.5067 7.205 12.7725 6.73612 12.0286 6.91075C10.3071 7.304 8.3862 8.57312 7.13495 10.1447C6.66195 10.7387 6.75958 11.6036 7.35358 12.0766C7.60658 12.2774 7.90908 12.3764 8.21021 12.3764V12.375ZM20.2786 9.59062C21.3951 9.84637 22.7756 10.7786 23.635 11.8566C23.9072 12.1976 24.3073 12.375 24.7116 12.375C25.0127 12.375 25.3138 12.2774 25.5682 12.0752C26.1622 11.6009 26.2598 10.736 25.7868 10.1434C24.5356 8.57175 22.6147 7.304 20.8932 6.90938C20.1548 6.73612 19.4165 7.20225 19.246 7.94338C19.0755 8.68312 19.5388 9.4215 20.2786 9.59062Z" fill="#34495E"/>
</g>
<defs>
<clipPath id="clip0_38_1102">
<rect width="33" height="33" fill="white"/>
</clipPath>
</defs>
</svg>
