<svg width="33" height="33" viewBox="0 0 33 33" fill="none" xmlns="http://www.w3.org/2000/svg">
<g clip-path="url(#clip0_38_1126)">
<path d="M29.9062 16.5C29.9062 12.9444 28.4938 9.53451 25.9797 7.02035C23.4655 4.50619 20.0556 3.09375 16.5 3.09375C12.9444 3.09375 9.53451 4.50619 7.02035 7.02035C4.50619 9.53451 3.09375 12.9444 3.09375 16.5C3.09375 20.0556 4.50619 23.4655 7.02035 25.9797C9.53451 28.4938 12.9444 29.9062 16.5 29.9062C20.0556 29.9062 23.4655 28.4938 25.9797 25.9797C28.4938 23.4655 29.9062 20.0556 29.9062 16.5ZM0 16.5C0 12.1239 1.73839 7.92709 4.83274 4.83274C7.92709 1.73839 12.1239 0 16.5 0C20.8761 0 25.0729 1.73839 28.1673 4.83274C31.2616 7.92709 33 12.1239 33 16.5C33 20.8761 31.2616 25.0729 28.1673 28.1673C25.0729 31.2616 20.8761 33 16.5 33C12.1239 33 7.92709 31.2616 4.83274 28.1673C1.73839 25.0729 0 20.8761 0 16.5ZM22.5264 19.8773C23.7316 19.5938 24.8402 20.6508 24.1699 21.6885C22.5844 24.1441 19.742 25.7812 16.4936 25.7812C13.2451 25.7812 10.4027 24.1441 8.81719 21.6885C8.14688 20.6508 9.25547 19.5938 10.4607 19.8773C12.3234 20.3156 14.3602 20.5541 16.4936 20.5541C18.627 20.5541 20.6637 20.3156 22.5264 19.8773ZM13.8768 8.83652C15.024 9.1459 15.7072 10.3254 15.3979 11.4662L14.2764 15.6557C14.1281 16.2035 13.5609 16.5322 13.0131 16.384L8.81719 15.2625C7.66992 14.9531 6.98672 13.7736 7.29609 12.6328C7.60547 11.492 8.78496 10.8023 9.92578 11.1117L10.9635 11.3889L11.2406 10.3512C11.55 9.20391 12.7295 8.5207 13.8703 8.83008L13.8768 8.83652ZM21.7594 10.3576L22.0365 11.3953L23.0742 11.1182C24.2215 10.8088 25.401 11.492 25.7039 12.6393C26.0068 13.7865 25.3301 14.966 24.1828 15.2689L19.9869 16.3904C19.4391 16.5387 18.8719 16.21 18.7236 15.6621L17.6021 11.4727C17.2928 10.3254 17.976 9.1459 19.1232 8.84297C20.2705 8.54004 21.45 9.2168 21.7594 10.3641V10.3576Z" fill="#34495E"/>
</g>
<defs>
<clipPath id="clip0_38_1126">
<rect width="33" height="33" fill="white"/>
</clipPath>
</defs>
</svg>
