<svg width="33" height="33" viewBox="0 0 33 33" fill="none" xmlns="http://www.w3.org/2000/svg">
<g clip-path="url(#clip0_35_701)">
<path d="M29.9062 16.5C29.9062 12.9444 28.4938 9.53451 25.9797 7.02035C23.4655 4.50619 20.0556 3.09375 16.5 3.09375C12.9444 3.09375 9.53451 4.50619 7.02035 7.02035C4.50619 9.53451 3.09375 12.9444 3.09375 16.5C3.09375 20.0556 4.50619 23.4655 7.02035 25.9797C9.53451 28.4938 12.9444 29.9062 16.5 29.9062C20.0556 29.9062 23.4655 28.4938 25.9797 25.9797C28.4938 23.4655 29.9062 20.0556 29.9062 16.5ZM0 16.5C0 12.1239 1.73839 7.92709 4.83274 4.83274C7.92709 1.73839 12.1239 0 16.5 0C20.8761 0 25.0729 1.73839 28.1673 4.83274C31.2616 7.92709 33 12.1239 33 16.5C33 20.8761 31.2616 25.0729 28.1673 28.1673C25.0729 31.2616 20.8761 33 16.5 33C12.1239 33 7.92709 31.2616 4.83274 28.1673C1.73839 25.0729 0 20.8761 0 16.5ZM11.2535 24.7564C10.9635 25.5621 10.0805 25.9746 9.2748 25.6846C8.46914 25.3945 8.05664 24.5115 8.34668 23.7059C9.46816 20.5863 12.8197 18.5625 16.5 18.5625C20.1803 18.5625 23.5318 20.5863 24.6598 23.7123C24.9498 24.518 24.5309 25.401 23.7316 25.691C22.9324 25.9811 22.043 25.5621 21.7529 24.7629C21.1535 23.1064 19.1555 21.6562 16.5 21.6562C13.8445 21.6562 11.8465 23.1064 11.2535 24.7564ZM9.30703 13.4062C9.30703 12.8592 9.52433 12.3346 9.91112 11.9478C10.2979 11.561 10.8225 11.3438 11.3695 11.3438C11.9165 11.3438 12.4411 11.561 12.8279 11.9478C13.2147 12.3346 13.432 12.8592 13.432 13.4062C13.432 13.9533 13.2147 14.4779 12.8279 14.8647C12.4411 15.2515 11.9165 15.4688 11.3695 15.4688C10.8225 15.4688 10.2979 15.2515 9.91112 14.8647C9.52433 14.4779 9.30703 13.9533 9.30703 13.4062ZM21.682 11.3438C22.229 11.3438 22.7536 11.561 23.1404 11.9478C23.5272 12.3346 23.7445 12.8592 23.7445 13.4062C23.7445 13.9533 23.5272 14.4779 23.1404 14.8647C22.7536 15.2515 22.229 15.4688 21.682 15.4688C21.135 15.4688 20.6104 15.2515 20.2236 14.8647C19.8368 14.4779 19.6195 13.9533 19.6195 13.4062C19.6195 12.8592 19.8368 12.3346 20.2236 11.9478C20.6104 11.561 21.135 11.3438 21.682 11.3438Z" fill="#34495E"/>
</g>
<defs>
<clipPath id="clip0_35_701">
<rect width="33" height="33" fill="white"/>
</clipPath>
</defs>
</svg>
